<svg width="242" height="59" viewBox="0 0 242 59" fill="none" xmlns="http://www.w3.org/2000/svg">
<rect width="242" height="59" fill="black"/>
<path d="M31.793 39V35.6724H34.3418V22.6309H31.793V19.3032H41.6626L45.9956 30.8579L50.3428 19.3032H60.4106V22.6309H57.8618V35.6724H60.4106V39H50.4985V35.6724H52.8774V22.6309H52.4102L46.3071 39H44.1831L38.0093 22.6309H37.542V35.6724H40.1191V39H31.793ZM78.6348 35.8423V39H72.0503V37.8389C70.7381 38.7451 69.4071 39.1982 68.0571 39.1982C66.7355 39.1982 65.6971 38.8301 64.9419 38.0938C64.1961 37.348 63.8232 36.3001 63.8232 34.9502V28.4648H61.77V25.293H68.1846V33.8315C68.1846 34.5112 68.2884 34.9785 68.4961 35.2334C68.7038 35.4788 69.0814 35.6016 69.6289 35.6016C70.3652 35.6016 71.1724 35.2759 72.0503 34.6245V28.4648H69.9404V25.293H76.4258V35.8423H78.6348ZM80.4048 39V35.8423H82.5571V22.4609H80.4048V19.3032H86.9326V35.8423H88.9009V39H80.4048ZM106.12 35.8423V39H99.5352V37.9238C98.3551 38.7734 97.109 39.1982 95.7969 39.1982C94.4375 39.1982 93.2622 38.8112 92.271 38.0371C91.2892 37.263 90.7983 36.2246 90.7983 34.9219C90.7983 33.6097 91.3175 32.5099 92.356 31.6226C93.3944 30.7352 94.7349 30.2915 96.3774 30.2915C97.2931 30.2915 98.3457 30.5228 99.5352 30.9854V30.1499C99.5352 29.4513 99.2992 28.8802 98.8271 28.4365C98.3551 27.9834 97.7227 27.7568 96.9297 27.7568C95.9479 27.7568 95.1077 28.1156 94.4092 28.833L90.8833 28.1958C91.9028 26.034 94.1165 24.9531 97.5244 24.9531C98.846 24.9531 99.9411 25.1042 100.81 25.4062C101.678 25.6989 102.325 26.0812 102.75 26.5532C103.174 27.0252 103.472 27.5444 103.642 28.1108C103.821 28.6678 103.911 29.5788 103.911 30.8438V35.8423H106.12ZM99.5352 33.9307C98.4779 33.2699 97.633 32.9395 97.0005 32.9395C96.5002 32.9395 96.0423 33.0858 95.627 33.3784C95.221 33.6711 95.0181 34.0959 95.0181 34.6528C95.0181 35.1532 95.1833 35.5827 95.5137 35.9414C95.8441 36.3001 96.2689 36.4795 96.7881 36.4795C97.5999 36.4795 98.5156 36.0028 99.5352 35.0493V33.9307ZM109.674 21.3706C109.674 20.7098 109.905 20.1434 110.368 19.6714C110.84 19.1994 111.406 18.9634 112.067 18.9634C112.737 18.9634 113.304 19.1994 113.766 19.6714C114.229 20.1434 114.46 20.7098 114.46 21.3706C114.46 22.0314 114.224 22.5978 113.752 23.0698C113.289 23.5324 112.728 23.7637 112.067 23.7637C111.416 23.7637 110.854 23.5277 110.382 23.0557C109.91 22.5837 109.674 22.022 109.674 21.3706ZM107.748 28.4648V25.293H114.205V35.8423H116.244V39H107.748V35.8423H109.83V28.4648H107.748ZM137.966 32.3872V29.0596H147.198C147.198 31.4479 146.764 33.3407 145.896 34.7378C145.036 36.1349 143.781 37.2347 142.129 38.0371C140.486 38.8395 138.641 39.2407 136.592 39.2407C133.033 39.2407 130.3 38.2873 128.394 36.3804C126.496 34.4735 125.547 32.0521 125.547 29.1162C125.547 27.0771 126.019 25.2788 126.963 23.7212C127.907 22.1541 129.177 20.9741 130.772 20.1812C132.368 19.3882 134.1 18.9917 135.969 18.9917C138.612 18.9917 140.67 19.6336 142.143 20.9175V19.3032H145.485V26.2983H142.143C141.794 25.1183 141.1 24.1885 140.062 23.5088C139.023 22.8291 137.909 22.4893 136.72 22.4893C135.153 22.4893 133.817 23.0462 132.712 24.1602C131.608 25.2646 131.056 26.7987 131.056 28.7622C131.056 31.009 131.617 32.7223 132.741 33.9023C133.864 35.0729 135.233 35.6582 136.847 35.6582C138.037 35.6582 139.023 35.3703 139.807 34.7944C140.59 34.2186 141.133 33.4162 141.435 32.3872H137.966ZM165.054 35.8423V39H158.47V37.9238C157.29 38.7734 156.044 39.1982 154.731 39.1982C153.372 39.1982 152.197 38.8112 151.206 38.0371C150.224 37.263 149.733 36.2246 149.733 34.9219C149.733 33.6097 150.252 32.5099 151.291 31.6226C152.329 30.7352 153.669 30.2915 155.312 30.2915C156.228 30.2915 157.28 30.5228 158.47 30.9854V30.1499C158.47 29.4513 158.234 28.8802 157.762 28.4365C157.29 27.9834 156.657 27.7568 155.864 27.7568C154.882 27.7568 154.042 28.1156 153.344 28.833L149.818 28.1958C150.837 26.034 153.051 24.9531 156.459 24.9531C157.781 24.9531 158.876 25.1042 159.744 25.4062C160.613 25.6989 161.259 26.0812 161.684 26.5532C162.109 27.0252 162.406 27.5444 162.576 28.1108C162.756 28.6678 162.845 29.5788 162.845 30.8438V35.8423H165.054ZM158.47 33.9307C157.412 33.2699 156.568 32.9395 155.935 32.9395C155.435 32.9395 154.977 33.0858 154.562 33.3784C154.156 33.6711 153.953 34.0959 153.953 34.6528C153.953 35.1532 154.118 35.5827 154.448 35.9414C154.779 36.3001 155.203 36.4795 155.723 36.4795C156.535 36.4795 157.45 36.0028 158.47 35.0493V33.9307ZM166.3 28.4648V25.293H172.941V26.4116C174.433 25.5243 175.915 25.0806 177.388 25.0806C179.153 25.0806 180.522 25.7083 181.494 26.9639C183.259 25.7083 185.105 25.0806 187.031 25.0806C188.173 25.0806 189.098 25.293 189.806 25.7178C190.524 26.1331 191.014 26.6948 191.279 27.4028C191.543 28.1108 191.675 29.1823 191.675 30.6172V35.8423H193.941V39H187.3V30.9712C187.3 29.5363 186.681 28.8188 185.445 28.8188C184.472 28.8188 183.42 29.1304 182.287 29.7534V35.8423H184.553V39H177.912V31.0986C177.912 29.5788 177.317 28.8188 176.127 28.8188C175.202 28.8188 174.14 29.1304 172.941 29.7534V35.8423H175.207V39H166.3V35.8423H168.566V28.4648H166.3ZM206.26 34.8652L209.659 35.9556C208.233 38.1929 206.005 39.3115 202.975 39.3115C200.558 39.3115 198.67 38.6743 197.311 37.3999C195.961 36.1255 195.286 34.4499 195.286 32.373C195.286 30.2585 195.985 28.4932 197.382 27.0771C198.779 25.6611 200.558 24.9531 202.72 24.9531C204.287 24.9531 205.642 25.3496 206.784 26.1426C207.926 26.9355 208.719 27.922 209.163 29.1021C209.607 30.2821 209.829 31.599 209.829 33.0527H199.619C199.685 34.2988 200.077 35.1815 200.794 35.7007C201.521 36.2199 202.286 36.4795 203.088 36.4795C204.136 36.4795 205.194 35.9414 206.26 34.8652ZM205.425 30.6172C205.321 29.8525 205.019 29.2012 204.519 28.6631C204.028 28.125 203.353 27.856 202.494 27.856C200.889 27.856 199.954 28.7764 199.69 30.6172H205.425Z" fill="white"/>
</svg>
