<svg width="352" height="176" viewBox="0 0 352 176" fill="none" xmlns="http://www.w3.org/2000/svg">
<rect x="3.05176e-05" y="61" width="54" height="54" rx="9" fill="white"/>
<rect x="179" y="61" width="54" height="54" rx="9" fill="white"/>
<rect x="3.05176e-05" y="122" width="54" height="54" rx="9" fill="white"/>
<rect x="3.05176e-05" width="54" height="54" rx="9" fill="white"/>
<rect x="179" y="122" width="54" height="54" rx="9" fill="white"/>
<rect x="179" width="54" height="54" rx="9" fill="white"/>
<rect x="60" y="61" width="53" height="54" rx="9" fill="white"/>
<rect x="239" y="61" width="53" height="54" rx="9" fill="white"/>
<rect x="60" y="122" width="53" height="54" rx="9" fill="white"/>
<rect x="60" width="53" height="54" rx="9" fill="white"/>
<rect x="239" y="122" width="53" height="54" rx="9" fill="white"/>
<rect x="239" width="53" height="54" rx="9" fill="white"/>
<rect x="119" y="61" width="54" height="54" rx="9" fill="white"/>
<rect x="298" y="61" width="54" height="54" rx="9" fill="white"/>
<rect x="119" y="122" width="54" height="54" rx="9" fill="white"/>
<rect x="119" width="54" height="54" rx="9" fill="white"/>
<rect x="298" y="122" width="54" height="54" rx="9" fill="white"/>
<rect x="298" width="54" height="54" rx="9" fill="white"/>
</svg>
