<svg width="323" height="143" viewBox="0 0 323 143" fill="none" xmlns="http://www.w3.org/2000/svg">
<path d="M39.9922 66V59.1152H45.002V32.1328H39.9922V25.2481H58.5957C62.7168 25.2481 65.7832 25.4922 67.7949 25.9805C69.8066 26.4492 71.5449 27.6113 73.0098 29.4668C74.4746 31.3027 75.207 33.4609 75.207 35.9414C75.207 39.9063 73.293 42.709 69.4648 44.3496C74.3477 46.166 76.7891 49.418 76.7891 54.1055C76.7891 56.8008 76.0273 59.1152 74.5039 61.0488C73 62.9629 71.0469 64.2715 68.6445 64.9746C66.2617 65.6582 62.9121 66 58.5957 66H39.9922ZM55.6074 41.332H58.5957C60.666 41.332 62.1895 40.9805 63.166 40.2773C64.1426 39.5742 64.6309 38.334 64.6309 36.5566C64.6309 34.9356 64.1523 33.793 63.1953 33.1289C62.2578 32.4648 60.6074 32.1328 58.2441 32.1328H55.6074V41.332ZM55.6074 59.1152H58.5957C61.3105 59.1152 63.2051 58.7246 64.2793 57.9434C65.3535 57.1621 65.8906 55.7852 65.8906 53.8125C65.8906 51.7422 65.3047 50.2969 64.1328 49.4766C62.9805 48.6367 61.1348 48.2168 58.5957 48.2168H55.6074V59.1152ZM81.8867 66V59.1152H86.7793V32.1328H81.8867V25.2481H117.805V38.168H110.012V32.1328H97.3848V41.5371H107.58V48.4219H97.3848V59.1152H110.012V53.0215H117.805V66H81.8867ZM148.684 52.3184V45.4336H167.785C167.785 50.375 166.887 54.291 165.09 57.1816C163.312 60.0723 160.715 62.3477 157.297 64.0078C153.898 65.668 150.08 66.4981 145.842 66.4981C138.479 66.4981 132.824 64.5254 128.879 60.5801C124.953 56.6348 122.99 51.625 122.99 45.5508C122.99 41.332 123.967 37.6113 125.92 34.3887C127.873 31.1465 130.5 28.7051 133.801 27.0645C137.102 25.4238 140.686 24.6035 144.553 24.6035C150.021 24.6035 154.279 25.9316 157.326 28.5879V25.2481H164.24V39.7207H157.326C156.604 37.2793 155.168 35.3555 153.02 33.9492C150.871 32.543 148.566 31.8398 146.105 31.8398C142.863 31.8398 140.1 32.9922 137.814 35.2969C135.529 37.582 134.387 40.7559 134.387 44.8184C134.387 49.4668 135.549 53.0117 137.873 55.4531C140.197 57.875 143.029 59.0859 146.369 59.0859C148.83 59.0859 150.871 58.4902 152.492 57.2988C154.113 56.1074 155.236 54.4473 155.861 52.3184H148.684ZM171.916 66V59.1152H178.098V32.1328H171.916V25.2481H194.943V32.1328H188.703V59.1152H194.943V66H171.916ZM197.814 66V59.1152H203.264V32.1328H197.814V25.2481H214.895L229.924 50.6777V32.1328H224.621V25.2481H242.902V32.1328H237.189V66.293H228.107L210.529 36.0879V59.1152H215.656V66H197.814ZM244.807 32.1328V25.2481H264.26V32.1328H260.246V50.5606C260.246 53.0215 260.344 54.7988 260.539 55.8926C260.754 56.9668 261.301 57.8555 262.18 58.5586C263.059 59.2617 264.172 59.6133 265.52 59.6133C266.906 59.6133 268.059 59.2813 268.977 58.6172C269.895 57.9531 270.48 57.1231 270.734 56.127C271.008 55.1309 271.145 53.0996 271.145 50.0332V32.1328H267.189V25.2481H283.42V32.1328H278.439V52.5234C278.439 55.2969 278.293 57.3184 278 58.5879C277.707 59.8379 277.033 61.0879 275.979 62.3379C274.924 63.5684 273.391 64.5742 271.379 65.3555C269.387 66.1172 267.092 66.4981 264.494 66.4981C261.486 66.4981 258.918 66.0781 256.789 65.2383C254.68 64.3789 253.107 63.2461 252.072 61.8398C251.037 60.4336 250.373 59.0371 250.08 57.6504C249.787 56.2637 249.641 53.9004 249.641 50.5606V32.1328H244.807Z" fill="black"/>
<path d="M64.5894 137.726V130.086H63.3369V128.812H66.728C67.6606 128.812 68.3589 128.868 68.8228 128.98C69.2915 129.093 69.7041 129.378 70.0605 129.837C70.417 130.292 70.5952 130.826 70.5952 131.441C70.5952 131.915 70.4878 132.342 70.2729 132.723C70.063 133.104 69.7529 133.392 69.3428 133.587C69.9092 133.783 70.3438 134.107 70.6465 134.562C70.9541 135.011 71.1079 135.526 71.1079 136.107C71.1079 136.61 70.9932 137.066 70.7637 137.477C70.5391 137.887 70.2388 138.204 69.8628 138.429C69.4868 138.653 69.0742 138.805 68.625 138.883C68.1807 138.961 67.5728 139 66.8013 139H63.3369V137.726H64.5894ZM66.1274 133.053H67.0869C67.8193 133.053 68.3296 132.926 68.6177 132.672C68.9106 132.413 69.0571 132.035 69.0571 131.537C69.0571 130.57 68.4004 130.086 67.0869 130.086H66.1274V133.053ZM66.1274 137.726H66.7061C67.4629 137.726 68.0171 137.689 68.3687 137.616C68.7202 137.538 69.0059 137.359 69.2256 137.081C69.4502 136.798 69.5625 136.437 69.5625 135.997C69.5625 135.597 69.4551 135.262 69.2402 134.994C69.0303 134.72 68.7568 134.54 68.4199 134.452C68.0879 134.359 67.6167 134.312 67.0063 134.312H66.1274V137.726ZM80.0435 137.762V139H77.4287V138.187C76.6133 138.807 75.832 139.117 75.085 139.117C74.6113 139.117 74.2183 139.015 73.9058 138.81C73.5981 138.6 73.3931 138.331 73.2905 138.004C73.188 137.672 73.1367 137.14 73.1367 136.407V133.148H72.1333V131.91H74.5283V136.231C74.5283 136.754 74.543 137.105 74.5723 137.286C74.6016 137.467 74.687 137.616 74.8286 137.733C74.9702 137.85 75.1484 137.909 75.3633 137.909C76.0078 137.909 76.6963 137.601 77.4287 136.986V133.148H76.1763V131.91H78.8203V137.762H80.0435ZM81.8379 137.762V130.05H80.5635V128.812H83.2295V135.177L85.8809 133.06H84.7017V131.91H88.6201V133.06H87.5361L84.8774 135.272L87.375 137.762H88.6201V139H86.7964L83.2295 135.433V137.762H84.4526V139H80.5635V137.762H81.8379ZM96.5669 137.762V139H94.1353V138.136C93.4614 138.79 92.7095 139.117 91.8794 139.117C91.2349 139.117 90.6733 138.907 90.1948 138.487C89.7212 138.067 89.4844 137.53 89.4844 136.876C89.4844 136.217 89.7358 135.67 90.2388 135.235C90.7466 134.801 91.3569 134.583 92.0698 134.583C92.7339 134.583 93.376 134.784 93.9961 135.184V134.481C93.9961 134.12 93.9619 133.841 93.8936 133.646C93.8252 133.451 93.6641 133.275 93.4102 133.119C93.1611 132.962 92.834 132.884 92.4287 132.884C91.7305 132.884 91.2251 133.163 90.9126 133.719L89.5796 133.368C90.1704 132.264 91.1909 131.712 92.6411 131.712C93.1733 131.712 93.6323 131.786 94.0181 131.932C94.4087 132.074 94.6992 132.259 94.8896 132.489C95.0801 132.713 95.207 132.958 95.2705 133.221C95.3389 133.485 95.373 133.905 95.373 134.481V137.762H96.5669ZM93.9961 136.363C93.3955 135.895 92.7876 135.66 92.1724 135.66C91.7866 135.66 91.4644 135.772 91.2056 135.997C90.9468 136.222 90.8174 136.512 90.8174 136.869C90.8174 137.201 90.9297 137.479 91.1543 137.704C91.3838 137.928 91.6938 138.041 92.0845 138.041C92.7583 138.041 93.3955 137.757 93.9961 137.191V136.363ZM99.8042 131.91V132.767C100.698 132.123 101.513 131.8 102.25 131.8C102.709 131.8 103.088 131.91 103.386 132.13C103.688 132.345 103.886 132.611 103.979 132.928C104.072 133.241 104.118 133.7 104.118 134.305V137.762H105.312V139H102.727V134.364C102.727 133.827 102.646 133.478 102.485 133.316C102.324 133.15 102.126 133.067 101.892 133.067C101.276 133.067 100.581 133.368 99.8042 133.968V137.762H101.027V139H97.1675V137.762H98.4126V133.148H97.1675V131.91H99.8042ZM110.703 137.726V130.086H109.45V128.812H112.841C113.774 128.812 114.472 128.868 114.936 128.98C115.405 129.093 115.817 129.378 116.174 129.837C116.53 130.292 116.708 130.826 116.708 131.441C116.708 131.915 116.601 132.342 116.386 132.723C116.176 133.104 115.866 133.392 115.456 133.587C116.022 133.783 116.457 134.107 116.76 134.562C117.067 135.011 117.221 135.526 117.221 136.107C117.221 136.61 117.106 137.066 116.877 137.477C116.652 137.887 116.352 138.204 115.976 138.429C115.6 138.653 115.188 138.805 114.738 138.883C114.294 138.961 113.686 139 112.915 139H109.45V137.726H110.703ZM112.241 133.053H113.2C113.933 133.053 114.443 132.926 114.731 132.672C115.024 132.413 115.17 132.035 115.17 131.537C115.17 130.57 114.514 130.086 113.2 130.086H112.241V133.053ZM112.241 137.726H112.819C113.576 137.726 114.13 137.689 114.482 137.616C114.833 137.538 115.119 137.359 115.339 137.081C115.563 136.798 115.676 136.437 115.676 135.997C115.676 135.597 115.568 135.262 115.354 134.994C115.144 134.72 114.87 134.54 114.533 134.452C114.201 134.359 113.73 134.312 113.12 134.312H112.241V137.726ZM125.9 135.807H119.938C120.026 136.461 120.285 136.991 120.715 137.396C121.145 137.801 121.694 138.004 122.363 138.004C123.334 138.004 124.104 137.613 124.67 136.832L125.9 137.374C125.5 137.994 124.98 138.456 124.34 138.758C123.701 139.056 123.032 139.205 122.333 139.205C121.25 139.205 120.322 138.868 119.55 138.194C118.784 137.516 118.4 136.603 118.4 135.455C118.4 134.366 118.774 133.47 119.521 132.767C120.273 132.064 121.135 131.712 122.106 131.712C123.059 131.712 123.92 132.057 124.692 132.745C125.468 133.429 125.871 134.449 125.9 135.807ZM124.465 134.796C124.367 134.298 124.108 133.849 123.688 133.448C123.269 133.043 122.753 132.84 122.143 132.84C121.586 132.84 121.11 133.023 120.715 133.39C120.319 133.751 120.078 134.22 119.99 134.796H124.465ZM135.664 131.91V133.148H134.389V138.429C134.389 139.142 134.353 139.669 134.279 140.011C134.206 140.357 134.028 140.709 133.745 141.065C133.466 141.427 133.046 141.729 132.485 141.974C131.923 142.218 131.296 142.34 130.603 142.34C129.558 142.34 128.625 142.025 127.805 141.395L128.713 140.384C129.328 140.863 129.997 141.102 130.72 141.102C131.12 141.102 131.491 141.024 131.833 140.868C132.175 140.716 132.429 140.531 132.595 140.311C132.766 140.091 132.875 139.881 132.924 139.681C132.973 139.486 132.998 139.154 132.998 138.685V138.041C132.778 138.319 132.434 138.583 131.965 138.832C131.496 139.081 130.983 139.205 130.427 139.205C129.411 139.205 128.583 138.854 127.944 138.15C127.304 137.447 126.984 136.583 126.984 135.558C126.984 134.435 127.336 133.529 128.039 132.84C128.747 132.147 129.565 131.8 130.493 131.8C131.43 131.8 132.265 132.174 132.998 132.921V131.91H135.664ZM128.464 135.528C128.464 136.246 128.671 136.832 129.086 137.286C129.506 137.74 130.041 137.967 130.69 137.967C131.325 137.967 131.872 137.74 132.331 137.286C132.79 136.827 133.02 136.239 133.02 135.521C133.02 134.793 132.79 134.21 132.331 133.771C131.872 133.326 131.34 133.104 130.734 133.104C130.129 133.104 129.599 133.324 129.145 133.763C128.691 134.198 128.464 134.786 128.464 135.528ZM137.224 129.5C137.224 129.276 137.302 129.081 137.458 128.915C137.619 128.749 137.822 128.666 138.066 128.666C138.295 128.666 138.493 128.746 138.659 128.907C138.825 129.068 138.908 129.266 138.908 129.5C138.908 129.735 138.825 129.935 138.659 130.101C138.493 130.262 138.295 130.343 138.066 130.343C137.832 130.343 137.631 130.26 137.465 130.094C137.304 129.928 137.224 129.73 137.224 129.5ZM137.421 137.762V133.148H136.315V131.91H138.813V137.762H139.904V139H136.315V137.762H137.421ZM143.251 131.91V132.767C144.145 132.123 144.96 131.8 145.698 131.8C146.157 131.8 146.535 131.91 146.833 132.13C147.136 132.345 147.333 132.611 147.426 132.928C147.519 133.241 147.565 133.7 147.565 134.305V137.762H148.759V139H146.174V134.364C146.174 133.827 146.093 133.478 145.932 133.316C145.771 133.15 145.573 133.067 145.339 133.067C144.724 133.067 144.028 133.368 143.251 133.968V137.762H144.475V139H140.615V137.762H141.86V133.148H140.615V131.91H143.251ZM150.202 129.5C150.202 129.276 150.28 129.081 150.437 128.915C150.598 128.749 150.8 128.666 151.044 128.666C151.274 128.666 151.472 128.746 151.638 128.907C151.804 129.068 151.887 129.266 151.887 129.5C151.887 129.735 151.804 129.935 151.638 130.101C151.472 130.262 151.274 130.343 151.044 130.343C150.81 130.343 150.61 130.26 150.444 130.094C150.283 129.928 150.202 129.73 150.202 129.5ZM150.4 137.762V133.148H149.294V131.91H151.792V137.762H152.883V139H149.294V137.762H150.4ZM154.479 139V137.198H156.281V138.766C156.281 139.298 156.24 139.71 156.157 140.003C156.074 140.296 155.896 140.536 155.622 140.721C155.354 140.912 154.973 141.014 154.479 141.029V140.267C155.065 140.179 155.358 139.815 155.358 139.176C155.358 139.137 155.356 139.078 155.351 139H154.479ZM161.708 137.726V130.086H160.456V128.812H163.847C164.78 128.812 165.478 128.868 165.942 128.98C166.411 129.093 166.823 129.378 167.18 129.837C167.536 130.292 167.714 130.826 167.714 131.441C167.714 131.915 167.607 132.342 167.392 132.723C167.182 133.104 166.872 133.392 166.462 133.587C167.028 133.783 167.463 134.107 167.766 134.562C168.073 135.011 168.227 135.526 168.227 136.107C168.227 136.61 168.112 137.066 167.883 137.477C167.658 137.887 167.358 138.204 166.982 138.429C166.606 138.653 166.193 138.805 165.744 138.883C165.3 138.961 164.692 139 163.92 139H160.456V137.726H161.708ZM163.247 133.053H164.206C164.938 133.053 165.449 132.926 165.737 132.672C166.03 132.413 166.176 132.035 166.176 131.537C166.176 130.57 165.52 130.086 164.206 130.086H163.247V133.053ZM163.247 137.726H163.825C164.582 137.726 165.136 137.689 165.488 137.616C165.839 137.538 166.125 137.359 166.345 137.081C166.569 136.798 166.682 136.437 166.682 135.997C166.682 135.597 166.574 135.262 166.359 134.994C166.149 134.72 165.876 134.54 165.539 134.452C165.207 134.359 164.736 134.312 164.125 134.312H163.247V137.726ZM177.163 137.762V139H174.548V138.187C173.732 138.807 172.951 139.117 172.204 139.117C171.73 139.117 171.337 139.015 171.025 138.81C170.717 138.6 170.512 138.331 170.41 138.004C170.307 137.672 170.256 137.14 170.256 136.407V133.148H169.252V131.91H171.647V136.231C171.647 136.754 171.662 137.105 171.691 137.286C171.721 137.467 171.806 137.616 171.948 137.733C172.089 137.85 172.268 137.909 172.482 137.909C173.127 137.909 173.815 137.601 174.548 136.986V133.148H173.295V131.91H175.939V137.762H177.163ZM178.957 137.762V130.05H177.683V128.812H180.349V135.177L183 133.06H181.821V131.91H185.739V133.06H184.655L181.997 135.272L184.494 137.762H185.739V139H183.916L180.349 135.433V137.762H181.572V139H177.683V137.762H178.957ZM193.686 137.762V139H191.254V138.136C190.581 138.79 189.829 139.117 188.999 139.117C188.354 139.117 187.792 138.907 187.314 138.487C186.84 138.067 186.604 137.53 186.604 136.876C186.604 136.217 186.855 135.67 187.358 135.235C187.866 134.801 188.476 134.583 189.189 134.583C189.853 134.583 190.495 134.784 191.115 135.184V134.481C191.115 134.12 191.081 133.841 191.013 133.646C190.944 133.451 190.783 133.275 190.529 133.119C190.28 132.962 189.953 132.884 189.548 132.884C188.85 132.884 188.344 133.163 188.032 133.719L186.699 133.368C187.29 132.264 188.31 131.712 189.76 131.712C190.292 131.712 190.751 131.786 191.137 131.932C191.528 132.074 191.818 132.259 192.009 132.489C192.199 132.713 192.326 132.958 192.39 133.221C192.458 133.485 192.492 133.905 192.492 134.481V137.762H193.686ZM191.115 136.363C190.515 135.895 189.907 135.66 189.292 135.66C188.906 135.66 188.583 135.772 188.325 135.997C188.066 136.222 187.937 136.512 187.937 136.869C187.937 137.201 188.049 137.479 188.273 137.704C188.503 137.928 188.813 138.041 189.204 138.041C189.877 138.041 190.515 137.757 191.115 137.191V136.363ZM196.923 131.91V132.767C197.817 132.123 198.632 131.8 199.37 131.8C199.829 131.8 200.207 131.91 200.505 132.13C200.808 132.345 201.005 132.611 201.098 132.928C201.191 133.241 201.237 133.7 201.237 134.305V137.762H202.431V139H199.846V134.364C199.846 133.827 199.765 133.478 199.604 133.316C199.443 133.15 199.245 133.067 199.011 133.067C198.396 133.067 197.7 133.368 196.923 133.968V137.762H198.146V139H194.287V137.762H195.532V133.148H194.287V131.91H196.923ZM207.822 137.726V130.086H206.569V128.812H209.96C210.893 128.812 211.591 128.868 212.055 128.98C212.524 129.093 212.937 129.378 213.293 129.837C213.649 130.292 213.828 130.826 213.828 131.441C213.828 131.915 213.72 132.342 213.505 132.723C213.295 133.104 212.985 133.392 212.575 133.587C213.142 133.783 213.576 134.107 213.879 134.562C214.187 135.011 214.34 135.526 214.34 136.107C214.34 136.61 214.226 137.066 213.996 137.477C213.771 137.887 213.471 138.204 213.095 138.429C212.719 138.653 212.307 138.805 211.857 138.883C211.413 138.961 210.805 139 210.034 139H206.569V137.726H207.822ZM209.36 133.053H210.319C211.052 133.053 211.562 132.926 211.85 132.672C212.143 132.413 212.29 132.035 212.29 131.537C212.29 130.57 211.633 130.086 210.319 130.086H209.36V133.053ZM209.36 137.726H209.938C210.695 137.726 211.25 137.689 211.601 137.616C211.953 137.538 212.238 137.359 212.458 137.081C212.683 136.798 212.795 136.437 212.795 135.997C212.795 135.597 212.688 135.262 212.473 134.994C212.263 134.72 211.989 134.54 211.652 134.452C211.32 134.359 210.849 134.312 210.239 134.312H209.36V137.726ZM223.02 135.807H217.058C217.146 136.461 217.404 136.991 217.834 137.396C218.264 137.801 218.813 138.004 219.482 138.004C220.454 138.004 221.223 137.613 221.789 136.832L223.02 137.374C222.619 137.994 222.099 138.456 221.459 138.758C220.82 139.056 220.151 139.205 219.453 139.205C218.369 139.205 217.441 138.868 216.669 138.194C215.903 137.516 215.52 136.603 215.52 135.455C215.52 134.366 215.893 133.47 216.64 132.767C217.392 132.064 218.254 131.712 219.226 131.712C220.178 131.712 221.04 132.057 221.811 132.745C222.587 133.429 222.99 134.449 223.02 135.807ZM221.584 134.796C221.486 134.298 221.228 133.849 220.808 133.448C220.388 133.043 219.873 132.84 219.262 132.84C218.706 132.84 218.229 133.023 217.834 133.39C217.438 133.751 217.197 134.22 217.109 134.796H221.584ZM232.783 131.91V133.148H231.508V138.429C231.508 139.142 231.472 139.669 231.398 140.011C231.325 140.357 231.147 140.709 230.864 141.065C230.585 141.427 230.166 141.729 229.604 141.974C229.042 142.218 228.415 142.34 227.722 142.34C226.677 142.34 225.744 142.025 224.924 141.395L225.832 140.384C226.447 140.863 227.116 141.102 227.839 141.102C228.239 141.102 228.61 141.024 228.952 140.868C229.294 140.716 229.548 140.531 229.714 140.311C229.885 140.091 229.995 139.881 230.043 139.681C230.092 139.486 230.117 139.154 230.117 138.685V138.041C229.897 138.319 229.553 138.583 229.084 138.832C228.615 139.081 228.103 139.205 227.546 139.205C226.53 139.205 225.703 138.854 225.063 138.15C224.423 137.447 224.104 136.583 224.104 135.558C224.104 134.435 224.455 133.529 225.158 132.84C225.866 132.147 226.684 131.8 227.612 131.8C228.549 131.8 229.384 132.174 230.117 132.921V131.91H232.783ZM225.583 135.528C225.583 136.246 225.791 136.832 226.206 137.286C226.625 137.74 227.16 137.967 227.81 137.967C228.444 137.967 228.991 137.74 229.45 137.286C229.909 136.827 230.139 136.239 230.139 135.521C230.139 134.793 229.909 134.21 229.45 133.771C228.991 133.326 228.459 133.104 227.854 133.104C227.248 133.104 226.718 133.324 226.264 133.763C225.81 134.198 225.583 134.786 225.583 135.528ZM234.343 129.5C234.343 129.276 234.421 129.081 234.577 128.915C234.738 128.749 234.941 128.666 235.185 128.666C235.415 128.666 235.612 128.746 235.778 128.907C235.944 129.068 236.027 129.266 236.027 129.5C236.027 129.735 235.944 129.935 235.778 130.101C235.612 130.262 235.415 130.343 235.185 130.343C234.951 130.343 234.75 130.26 234.584 130.094C234.423 129.928 234.343 129.73 234.343 129.5ZM234.541 137.762V133.148H233.435V131.91H235.932V137.762H237.023V139H233.435V137.762H234.541ZM237.785 133.148V131.91H238.708V130.819L240.1 129.544V131.91H241.411V133.148H240.1V136.59C240.1 137.142 240.129 137.484 240.188 137.616C240.251 137.743 240.405 137.806 240.649 137.806C240.908 137.806 241.162 137.757 241.411 137.66V138.927C241.054 139.054 240.698 139.117 240.341 139.117C239.917 139.117 239.572 139.024 239.309 138.839C239.045 138.648 238.879 138.412 238.811 138.128C238.742 137.845 238.708 137.357 238.708 136.664V133.148H237.785ZM250.156 137.762V139H247.541V138.187C246.726 138.807 245.944 139.117 245.197 139.117C244.724 139.117 244.331 139.015 244.018 138.81C243.71 138.6 243.505 138.331 243.403 138.004C243.3 137.672 243.249 137.14 243.249 136.407V133.148H242.246V131.91H244.641V136.231C244.641 136.754 244.655 137.105 244.685 137.286C244.714 137.467 244.799 137.616 244.941 137.733C245.083 137.85 245.261 137.909 245.476 137.909C246.12 137.909 246.809 137.601 247.541 136.986V133.148H246.289V131.91H248.933V137.762H250.156Z" fill="#AC7D00"/>
<circle cx="105" cy="99" r="11" fill="white"/>
<circle cx="133" cy="99" r="11" fill="white"/>
<circle cx="161" cy="99" r="11" fill="white"/>
<circle cx="189" cy="99" r="11" fill="white"/>
<circle cx="217" cy="99" r="11" fill="white"/>
<path d="M0 44L26.1905 0L33 5.76191L9.42857 44L33 84.3333L26.1905 88L0 44Z" fill="white"/>
<path d="M323 44L296.81 88L290 82.2381L313.571 44L290 3.66666L296.81 -9.91904e-06L323 44Z" fill="white"/>
</svg>
