<svg width="242" height="59" viewBox="0 0 242 59" fill="none" xmlns="http://www.w3.org/2000/svg">
<rect width="242" height="59" fill="black"/>
<path d="M43.793 39V35.6724H46.3418V22.6309H43.793V19.3032H53.6626L57.9956 30.8579L62.3428 19.3032H72.4106V22.6309H69.8618V35.6724H72.4106V39H62.4985V35.6724H64.8774V22.6309H64.4102L58.3071 39H56.1831L50.0093 22.6309H49.542V35.6724H52.1191V39H43.793ZM89.7144 35.8423V39H83.1299V37.9238C81.9499 38.7734 80.7038 39.1982 79.3916 39.1982C78.0322 39.1982 76.8569 38.8112 75.8657 38.0371C74.884 37.263 74.3931 36.2246 74.3931 34.9219C74.3931 33.6097 74.9123 32.5099 75.9507 31.6226C76.9891 30.7352 78.3296 30.2915 79.9722 30.2915C80.8879 30.2915 81.9404 30.5228 83.1299 30.9854V30.1499C83.1299 29.4513 82.8939 28.8802 82.4219 28.4365C81.9499 27.9834 81.3174 27.7568 80.5244 27.7568C79.5426 27.7568 78.7025 28.1156 78.0039 28.833L74.478 28.1958C75.4976 26.034 77.7113 24.9531 81.1191 24.9531C82.4408 24.9531 83.5358 25.1042 84.4043 25.4062C85.2728 25.6989 85.9194 26.0812 86.3442 26.5532C86.769 27.0252 87.0664 27.5444 87.2363 28.1108C87.4157 28.6678 87.5054 29.5788 87.5054 30.8438V35.8423H89.7144ZM83.1299 33.9307C82.0726 33.2699 81.2277 32.9395 80.5952 32.9395C80.0949 32.9395 79.637 33.0858 79.2217 33.3784C78.8158 33.6711 78.6128 34.0959 78.6128 34.6528C78.6128 35.1532 78.778 35.5827 79.1084 35.9414C79.4388 36.3001 79.8636 36.4795 80.3828 36.4795C81.1947 36.4795 82.1104 36.0028 83.1299 35.0493V33.9307ZM93.2686 21.3706C93.2686 20.7098 93.4998 20.1434 93.9624 19.6714C94.4344 19.1994 95.0008 18.9634 95.6616 18.9634C96.3319 18.9634 96.8983 19.1994 97.3608 19.6714C97.8234 20.1434 98.0547 20.7098 98.0547 21.3706C98.0547 22.0314 97.8187 22.5978 97.3467 23.0698C96.8841 23.5324 96.3224 23.7637 95.6616 23.7637C95.0103 23.7637 94.4486 23.5277 93.9766 23.0557C93.5046 22.5837 93.2686 22.022 93.2686 21.3706ZM91.3428 28.4648V25.293H97.7998V35.8423H99.8389V39H91.3428V35.8423H93.4243V28.4648H91.3428ZM101.439 28.4648V25.293H107.91V26.5674C109.232 25.5762 110.572 25.0806 111.932 25.0806C114.698 25.0806 116.081 26.8459 116.081 30.3765V35.8423H118.148V39H111.705V30.7021C111.705 29.9564 111.601 29.4466 111.394 29.1729C111.195 28.8991 110.865 28.7622 110.402 28.7622C109.59 28.7622 108.76 29.0596 107.91 29.6543V35.8423H110.02V39H101.439V35.8423H103.535V28.4648H101.439ZM126.587 39V35.6724H129.405V22.6309H126.587V19.3032H137.406V22.6309H134.531V35.6724H140.351V29.5835H144.188V39H126.587ZM161.025 35.8423V39H154.44V37.9238C153.26 38.7734 152.014 39.1982 150.702 39.1982C149.343 39.1982 148.167 38.8112 147.176 38.0371C146.194 37.263 145.704 36.2246 145.704 34.9219C145.704 33.6097 146.223 32.5099 147.261 31.6226C148.3 30.7352 149.64 30.2915 151.283 30.2915C152.198 30.2915 153.251 30.5228 154.44 30.9854V30.1499C154.44 29.4513 154.204 28.8802 153.732 28.4365C153.26 27.9834 152.628 27.7568 151.835 27.7568C150.853 27.7568 150.013 28.1156 149.314 28.833L145.789 28.1958C146.808 26.034 149.022 24.9531 152.43 24.9531C153.751 24.9531 154.846 25.1042 155.715 25.4062C156.583 25.6989 157.23 26.0812 157.655 26.5532C158.08 27.0252 158.377 27.5444 158.547 28.1108C158.726 28.6678 158.816 29.5788 158.816 30.8438V35.8423H161.025ZM154.44 33.9307C153.383 33.2699 152.538 32.9395 151.906 32.9395C151.405 32.9395 150.948 33.0858 150.532 33.3784C150.126 33.6711 149.923 34.0959 149.923 34.6528C149.923 35.1532 150.089 35.5827 150.419 35.9414C150.749 36.3001 151.174 36.4795 151.693 36.4795C152.505 36.4795 153.421 36.0028 154.44 35.0493V33.9307ZM179.079 25.293V28.4648H176.813V38.5894C176.813 43.1112 174.425 45.3721 169.648 45.3721C166.911 45.3721 164.872 44.8765 163.531 43.8853L165.655 40.9824C166.76 41.6621 167.869 42.002 168.983 42.002C169.955 42.002 170.772 41.7518 171.433 41.2515C172.103 40.7511 172.438 39.7788 172.438 38.3345V37.2866C171.013 38.561 169.625 39.1982 168.275 39.1982C166.689 39.1982 165.334 38.5374 164.211 37.2158C163.097 35.8848 162.54 34.1903 162.54 32.1323C162.54 30.0649 163.116 28.3752 164.268 27.063C165.419 25.7414 166.826 25.0806 168.487 25.0806C170.083 25.0806 171.4 25.7083 172.438 26.9639V25.293H179.079ZM172.452 32.189C172.452 31.0845 172.207 30.2113 171.716 29.5693C171.225 28.9274 170.555 28.6064 169.705 28.6064C168.837 28.6064 168.171 28.9368 167.708 29.5977C167.255 30.2585 167.029 31.1081 167.029 32.1465C167.029 33.1849 167.265 34.0345 167.737 34.6953C168.218 35.3467 168.874 35.6724 169.705 35.6724C170.47 35.6724 171.116 35.3703 171.645 34.7661C172.183 34.1525 172.452 33.2935 172.452 32.189ZM182.704 21.3706C182.704 20.7098 182.935 20.1434 183.398 19.6714C183.87 19.1994 184.436 18.9634 185.097 18.9634C185.767 18.9634 186.334 19.1994 186.796 19.6714C187.259 20.1434 187.49 20.7098 187.49 21.3706C187.49 22.0314 187.254 22.5978 186.782 23.0698C186.32 23.5324 185.758 23.7637 185.097 23.7637C184.446 23.7637 183.884 23.5277 183.412 23.0557C182.94 22.5837 182.704 22.022 182.704 21.3706ZM180.778 28.4648V25.293H187.235V35.8423H189.274V39H180.778V35.8423H182.86V28.4648H180.778Z" fill="white"/>
</svg>
