<svg width="267" height="121" viewBox="0 0 267 121" fill="none" xmlns="http://www.w3.org/2000/svg">
<path d="M1.62402 13V8.56152H3.15332V9.64258C3.88574 10.9727 4.84375 11.6377 6.02734 11.6377C6.63086 11.6377 7.14062 11.4531 7.55664 11.084C7.97266 10.7148 8.18066 10.2314 8.18066 9.63379C8.18066 9.05371 8.01074 8.6377 7.6709 8.38574C7.33105 8.12793 6.68945 7.87305 5.74609 7.62109C4.65039 7.32812 3.83887 7.05273 3.31152 6.79492C2.78418 6.53125 2.3623 6.15918 2.0459 5.67871C1.73535 5.19238 1.58008 4.61816 1.58008 3.95605C1.58008 2.93066 1.91992 2.11328 2.59961 1.50391C3.28516 0.888672 4.14355 0.581055 5.1748 0.581055C6.15332 0.581055 7.06152 0.897461 7.89941 1.53027V0.712891H9.39355V4.42188H7.89941V3.56934C7.27246 2.62598 6.4082 2.1543 5.30664 2.1543C4.63867 2.1543 4.12598 2.30957 3.76855 2.62012C3.41113 2.9248 3.23242 3.29102 3.23242 3.71875C3.23242 4.04688 3.32324 4.33691 3.50488 4.58887C3.68652 4.83496 3.91797 5.0166 4.19922 5.13379C4.48047 5.25098 5.03418 5.41504 5.86035 5.62598C6.93848 5.90723 7.7207 6.1709 8.20703 6.41699C8.69336 6.65723 9.1123 7.06152 9.46387 7.62988C9.81543 8.19824 9.99121 8.85156 9.99121 9.58984C9.99121 10.6328 9.62207 11.4941 8.88379 12.1738C8.15137 12.8535 7.24316 13.1934 6.15918 13.1934C5.0459 13.1934 4.04395 12.792 3.15332 11.9893V13H1.62402ZM11.3008 13V10.082H12.7949V10.3633C12.8477 10.7617 13.0615 11.0898 13.4365 11.3477C13.8174 11.6055 14.2656 11.7344 14.7812 11.7344C15.3203 11.7344 15.751 11.6406 16.0732 11.4531C16.3955 11.2656 16.5566 11.0049 16.5566 10.6709C16.5566 10.3486 16.4219 10.1113 16.1523 9.95898C15.8887 9.80664 15.3613 9.66602 14.5703 9.53711C13.3984 9.33789 12.5605 9.01855 12.0566 8.5791C11.5586 8.13379 11.3096 7.55957 11.3096 6.85645C11.3096 6.14746 11.582 5.55566 12.127 5.08105C12.6719 4.60059 13.3896 4.36035 14.2803 4.36035C15.083 4.36035 15.7744 4.52441 16.3545 4.85254V4.49219H17.8398V7.31348H16.3545V6.79492C15.9033 6.09766 15.2471 5.74902 14.3857 5.74902C13.9463 5.74902 13.583 5.8457 13.2959 6.03906C13.0146 6.22656 12.874 6.47852 12.874 6.79492C12.874 7.11719 13.0029 7.33984 13.2607 7.46289C13.5244 7.58008 14.0869 7.70605 14.9482 7.84082C15.7744 7.96973 16.3984 8.12207 16.8203 8.29785C17.2422 8.46777 17.5908 8.75488 17.8662 9.15918C18.1475 9.55762 18.2881 10.0234 18.2881 10.5566C18.2881 11.3477 17.9834 11.9775 17.374 12.4463C16.7705 12.9092 15.9854 13.1406 15.0186 13.1406C14.1104 13.1406 13.3691 12.9355 12.7949 12.5254V13H11.3008ZM19.3516 5.97754V4.49219H20.459V3.18262L22.1289 1.65332V4.49219H23.7021V5.97754H22.1289V10.1084C22.1289 10.7705 22.1641 11.1807 22.2344 11.3389C22.3105 11.4912 22.4951 11.5674 22.7881 11.5674C23.0986 11.5674 23.4033 11.5088 23.7021 11.3916V12.9121C23.2744 13.0645 22.8467 13.1406 22.4189 13.1406C21.9092 13.1406 21.4961 13.0293 21.1797 12.8066C20.8633 12.5781 20.6641 12.2939 20.582 11.9541C20.5 11.6143 20.459 11.0283 20.459 10.1963V5.97754H19.3516ZM24.7832 5.97754V4.49219H25.8906V3.18262L27.5605 1.65332V4.49219H29.1338V5.97754H27.5605V10.1084C27.5605 10.7705 27.5957 11.1807 27.666 11.3389C27.7422 11.4912 27.9268 11.5674 28.2197 11.5674C28.5303 11.5674 28.835 11.5088 29.1338 11.3916V12.9121C28.7061 13.0645 28.2783 13.1406 27.8506 13.1406C27.3408 13.1406 26.9277 13.0293 26.6113 12.8066C26.2949 12.5781 26.0957 12.2939 26.0137 11.9541C25.9316 11.6143 25.8906 11.0283 25.8906 10.1963V5.97754H24.7832ZM31.2168 13V10.8379H33.3789V13H31.2168ZM36.4727 13V10.8379H38.6348V13H36.4727ZM43.7852 5.97754V4.49219H44.8926V3.18262L46.5625 1.65332V4.49219H48.1357V5.97754H46.5625V10.1084C46.5625 10.7705 46.5977 11.1807 46.668 11.3389C46.7441 11.4912 46.9287 11.5674 47.2217 11.5674C47.5322 11.5674 47.8369 11.5088 48.1357 11.3916V12.9121C47.708 13.0645 47.2803 13.1406 46.8525 13.1406C46.3428 13.1406 45.9297 13.0293 45.6133 12.8066C45.2969 12.5781 45.0977 12.2939 45.0156 11.9541C44.9336 11.6143 44.8926 11.0283 44.8926 10.1963V5.97754H43.7852ZM57.9971 11.5146V13H55.0791V11.9629C54.2705 12.748 53.3682 13.1406 52.3721 13.1406C51.5986 13.1406 50.9248 12.8887 50.3506 12.3848C49.7822 11.8809 49.498 11.2363 49.498 10.4512C49.498 9.66016 49.7998 9.00391 50.4033 8.48242C51.0127 7.96094 51.7451 7.7002 52.6006 7.7002C53.3975 7.7002 54.168 7.94043 54.9121 8.4209V7.57715C54.9121 7.14355 54.8711 6.80957 54.7891 6.5752C54.707 6.34082 54.5137 6.12988 54.209 5.94238C53.9102 5.75488 53.5176 5.66113 53.0312 5.66113C52.1934 5.66113 51.5869 5.99512 51.2119 6.66309L49.6123 6.24121C50.3213 4.91699 51.5459 4.25488 53.2861 4.25488C53.9248 4.25488 54.4756 4.34277 54.9385 4.51855C55.4072 4.68848 55.7559 4.91113 55.9844 5.18652C56.2129 5.45605 56.3652 5.74902 56.4414 6.06543C56.5234 6.38184 56.5645 6.88574 56.5645 7.57715V11.5146H57.9971ZM54.9121 9.83594C54.1914 9.27344 53.4619 8.99219 52.7236 8.99219C52.2607 8.99219 51.874 9.12695 51.5635 9.39648C51.2529 9.66602 51.0977 10.0146 51.0977 10.4424C51.0977 10.8408 51.2324 11.1748 51.502 11.4443C51.7773 11.7139 52.1494 11.8486 52.6182 11.8486C53.4268 11.8486 54.1914 11.5088 54.9121 10.8291V9.83594ZM60.1416 11.5146V2.25977H58.6035V0.774414H61.8115V5.46777C62.8135 4.65918 63.7656 4.25488 64.668 4.25488C65.2305 4.25488 65.6934 4.37207 66.0566 4.60645C66.4199 4.84082 66.666 5.15137 66.7949 5.53809C66.9297 5.91895 66.9971 6.47852 66.9971 7.2168V11.5146H68.4473V13H65.3271V7.79688C65.3271 7.15234 65.3066 6.72168 65.2656 6.50488C65.2246 6.28809 65.1104 6.10938 64.9229 5.96875C64.7412 5.82812 64.5244 5.75781 64.2725 5.75781C63.6279 5.75781 62.8076 6.12402 61.8115 6.85645V11.5146H63.2881V13H58.6035V11.5146H60.1416ZM78.5107 11.5146V13H75.373V12.0244C74.3945 12.7686 73.457 13.1406 72.5605 13.1406C71.9922 13.1406 71.5205 13.0176 71.1455 12.7715C70.7764 12.5195 70.5303 12.1973 70.4072 11.8047C70.2842 11.4062 70.2227 10.7676 70.2227 9.88867V5.97754H69.0186V4.49219H71.8926V9.67773C71.8926 10.3047 71.9102 10.7266 71.9453 10.9434C71.9805 11.1602 72.083 11.3389 72.2529 11.4795C72.4229 11.6201 72.6367 11.6904 72.8945 11.6904C73.668 11.6904 74.4941 11.3213 75.373 10.583V5.97754H73.8701V4.49219H77.043V11.5146H78.5107ZM86.8428 4.49219V5.52051C87.915 4.74707 88.8936 4.36035 89.7783 4.36035C90.3291 4.36035 90.7832 4.49219 91.1406 4.75586C91.5039 5.01367 91.7412 5.33301 91.8525 5.71387C91.9639 6.08887 92.0195 6.63965 92.0195 7.36621V11.5146H93.4521V13H90.3496V7.43652C90.3496 6.79199 90.2529 6.37305 90.0596 6.17969C89.8662 5.98047 89.6289 5.88086 89.3477 5.88086C88.6094 5.88086 87.7744 6.24121 86.8428 6.96191V11.5146H88.3105V13H83.6787V11.5146H85.1729V5.97754H83.6787V4.49219H86.8428ZM104.562 4.49219V5.97754H103.032V12.3145C103.032 13.1699 102.988 13.8027 102.9 14.2129C102.812 14.6289 102.599 15.0508 102.259 15.4785C101.925 15.9121 101.421 16.2754 100.747 16.5684C100.073 16.8613 99.3203 17.0078 98.4883 17.0078C97.2344 17.0078 96.1152 16.6299 95.1309 15.874L96.2207 14.6611C96.959 15.2354 97.7617 15.5225 98.6289 15.5225C99.1094 15.5225 99.5547 15.4287 99.9648 15.2412C100.375 15.0596 100.68 14.8369 100.879 14.5732C101.084 14.3096 101.216 14.0576 101.274 13.8174C101.333 13.583 101.362 13.1846 101.362 12.6221V11.8486C101.099 12.1826 100.686 12.499 100.123 12.7979C99.5605 13.0967 98.9453 13.2461 98.2773 13.2461C97.0586 13.2461 96.0654 12.8242 95.2979 11.9805C94.5303 11.1367 94.1465 10.0996 94.1465 8.86914C94.1465 7.52148 94.5684 6.43457 95.4121 5.6084C96.2617 4.77637 97.2432 4.36035 98.3564 4.36035C99.4814 4.36035 100.483 4.80859 101.362 5.70508V4.49219H104.562ZM95.9219 8.83398C95.9219 9.69531 96.1709 10.3984 96.6689 10.9434C97.1729 11.4883 97.8145 11.7607 98.5938 11.7607C99.3555 11.7607 100.012 11.4883 100.562 10.9434C101.113 10.3926 101.389 9.68652 101.389 8.8252C101.389 7.95215 101.113 7.25195 100.562 6.72461C100.012 6.19141 99.373 5.9248 98.6465 5.9248C97.9199 5.9248 97.2842 6.18848 96.7393 6.71582C96.1943 7.2373 95.9219 7.94336 95.9219 8.83398ZM115.636 4.49219V5.97754H114.106V12.3145C114.106 13.1699 114.062 13.8027 113.975 14.2129C113.887 14.6289 113.673 15.0508 113.333 15.4785C112.999 15.9121 112.495 16.2754 111.821 16.5684C111.147 16.8613 110.395 17.0078 109.562 17.0078C108.309 17.0078 107.189 16.6299 106.205 15.874L107.295 14.6611C108.033 15.2354 108.836 15.5225 109.703 15.5225C110.184 15.5225 110.629 15.4287 111.039 15.2412C111.449 15.0596 111.754 14.8369 111.953 14.5732C112.158 14.3096 112.29 14.0576 112.349 13.8174C112.407 13.583 112.437 13.1846 112.437 12.6221V11.8486C112.173 12.1826 111.76 12.499 111.197 12.7979C110.635 13.0967 110.02 13.2461 109.352 13.2461C108.133 13.2461 107.14 12.8242 106.372 11.9805C105.604 11.1367 105.221 10.0996 105.221 8.86914C105.221 7.52148 105.643 6.43457 106.486 5.6084C107.336 4.77637 108.317 4.36035 109.431 4.36035C110.556 4.36035 111.558 4.80859 112.437 5.70508V4.49219H115.636ZM106.996 8.83398C106.996 9.69531 107.245 10.3984 107.743 10.9434C108.247 11.4883 108.889 11.7607 109.668 11.7607C110.43 11.7607 111.086 11.4883 111.637 10.9434C112.188 10.3926 112.463 9.68652 112.463 8.8252C112.463 7.95215 112.188 7.25195 111.637 6.72461C111.086 6.19141 110.447 5.9248 109.721 5.9248C108.994 5.9248 108.358 6.18848 107.813 6.71582C107.269 7.2373 106.996 7.94336 106.996 8.83398ZM124.882 11.5146V13H121.964V11.9629C121.155 12.748 120.253 13.1406 119.257 13.1406C118.483 13.1406 117.81 12.8887 117.235 12.3848C116.667 11.8809 116.383 11.2363 116.383 10.4512C116.383 9.66016 116.685 9.00391 117.288 8.48242C117.897 7.96094 118.63 7.7002 119.485 7.7002C120.282 7.7002 121.053 7.94043 121.797 8.4209V7.57715C121.797 7.14355 121.756 6.80957 121.674 6.5752C121.592 6.34082 121.398 6.12988 121.094 5.94238C120.795 5.75488 120.402 5.66113 119.916 5.66113C119.078 5.66113 118.472 5.99512 118.097 6.66309L116.497 6.24121C117.206 4.91699 118.431 4.25488 120.171 4.25488C120.81 4.25488 121.36 4.34277 121.823 4.51855C122.292 4.68848 122.641 4.91113 122.869 5.18652C123.098 5.45605 123.25 5.74902 123.326 6.06543C123.408 6.38184 123.449 6.88574 123.449 7.57715V11.5146H124.882ZM121.797 9.83594C121.076 9.27344 120.347 8.99219 119.608 8.99219C119.146 8.99219 118.759 9.12695 118.448 9.39648C118.138 9.66602 117.982 10.0146 117.982 10.4424C117.982 10.8408 118.117 11.1748 118.387 11.4443C118.662 11.7139 119.034 11.8486 119.503 11.8486C120.312 11.8486 121.076 11.5088 121.797 10.8291V9.83594ZM129.391 9.7041H128.485L128.274 5.81934C128.55 5.88965 128.825 5.9248 129.101 5.9248C129.868 5.9248 130.422 5.73145 130.762 5.34473C131.102 4.95801 131.271 4.49805 131.271 3.96484C131.271 3.34375 131.087 2.86328 130.718 2.52344C130.354 2.17773 129.892 2.00488 129.329 2.00488C128.644 2.00488 128.134 2.20117 127.8 2.59375C127.472 2.98633 127.308 3.47559 127.308 4.06152C127.308 4.18457 127.311 4.32812 127.316 4.49219H125.673C125.667 4.33398 125.664 4.19922 125.664 4.08789C125.664 2.88672 126.019 2.00195 126.728 1.43359C127.442 0.865234 128.292 0.581055 129.276 0.581055C130.46 0.581055 131.377 0.900391 132.027 1.53906C132.678 2.17188 133.003 3.00684 133.003 4.04395C133.003 5.0459 132.692 5.8457 132.071 6.44336C131.456 7.04102 130.729 7.33984 129.892 7.33984C129.827 7.33984 129.733 7.33691 129.61 7.33105L129.391 9.7041ZM127.853 13V10.8379H130.006V13H127.853ZM140.069 11.5146V5.97754H138.654V4.49219H141.739V5.56445C142.747 4.76172 143.734 4.36035 144.701 4.36035C145.674 4.36035 146.345 4.80273 146.714 5.6875C147.821 4.80273 148.853 4.36035 149.808 4.36035C150.358 4.36035 150.81 4.4834 151.161 4.72949C151.519 4.96973 151.759 5.27734 151.882 5.65234C152.005 6.02148 152.066 6.56934 152.066 7.2959V11.5146H153.552V13H150.396V7.59473C150.396 7.10254 150.373 6.75684 150.326 6.55762C150.285 6.35254 150.174 6.18555 149.992 6.05664C149.816 5.92188 149.603 5.85449 149.351 5.85449C148.636 5.85449 147.824 6.2207 146.916 6.95312V11.5146H148.375V13H145.246V7.43652C145.246 6.87988 145.164 6.47852 145 6.23242C144.842 5.98047 144.569 5.85449 144.183 5.85449C143.55 5.85449 142.735 6.2207 141.739 6.95312V11.5146H143.233V13H138.549V11.5146H140.069ZM162.974 11.5146V13H160.056V11.9629C159.247 12.748 158.345 13.1406 157.349 13.1406C156.575 13.1406 155.901 12.8887 155.327 12.3848C154.759 11.8809 154.475 11.2363 154.475 10.4512C154.475 9.66016 154.776 9.00391 155.38 8.48242C155.989 7.96094 156.722 7.7002 157.577 7.7002C158.374 7.7002 159.145 7.94043 159.889 8.4209V7.57715C159.889 7.14355 159.848 6.80957 159.766 6.5752C159.684 6.34082 159.49 6.12988 159.186 5.94238C158.887 5.75488 158.494 5.66113 158.008 5.66113C157.17 5.66113 156.563 5.99512 156.188 6.66309L154.589 6.24121C155.298 4.91699 156.522 4.25488 158.263 4.25488C158.901 4.25488 159.452 4.34277 159.915 4.51855C160.384 4.68848 160.732 4.91113 160.961 5.18652C161.189 5.45605 161.342 5.74902 161.418 6.06543C161.5 6.38184 161.541 6.88574 161.541 7.57715V11.5146H162.974ZM159.889 9.83594C159.168 9.27344 158.438 8.99219 157.7 8.99219C157.237 8.99219 156.851 9.12695 156.54 9.39648C156.229 9.66602 156.074 10.0146 156.074 10.4424C156.074 10.8408 156.209 11.1748 156.479 11.4443C156.754 11.7139 157.126 11.8486 157.595 11.8486C158.403 11.8486 159.168 11.5088 159.889 10.8291V9.83594ZM163.949 13V10.082H165.443V10.3633C165.496 10.7617 165.71 11.0898 166.085 11.3477C166.466 11.6055 166.914 11.7344 167.43 11.7344C167.969 11.7344 168.399 11.6406 168.722 11.4531C169.044 11.2656 169.205 11.0049 169.205 10.6709C169.205 10.3486 169.07 10.1113 168.801 9.95898C168.537 9.80664 168.01 9.66602 167.219 9.53711C166.047 9.33789 165.209 9.01855 164.705 8.5791C164.207 8.13379 163.958 7.55957 163.958 6.85645C163.958 6.14746 164.23 5.55566 164.775 5.08105C165.32 4.60059 166.038 4.36035 166.929 4.36035C167.731 4.36035 168.423 4.52441 169.003 4.85254V4.49219H170.488V7.31348H169.003V6.79492C168.552 6.09766 167.896 5.74902 167.034 5.74902C166.595 5.74902 166.231 5.8457 165.944 6.03906C165.663 6.22656 165.522 6.47852 165.522 6.79492C165.522 7.11719 165.651 7.33984 165.909 7.46289C166.173 7.58008 166.735 7.70605 167.597 7.84082C168.423 7.96973 169.047 8.12207 169.469 8.29785C169.891 8.46777 170.239 8.75488 170.515 9.15918C170.796 9.55762 170.937 10.0234 170.937 10.5566C170.937 11.3477 170.632 11.9775 170.022 12.4463C169.419 12.9092 168.634 13.1406 167.667 13.1406C166.759 13.1406 166.018 12.9355 165.443 12.5254V13H163.949ZM177.845 11.4707V2.30371H176.518V0.774414H181.018V2.30371H179.69V11.4707H181.018V13H176.518V11.4707H177.845ZM185.245 4.49219V5.52051C186.317 4.74707 187.296 4.36035 188.181 4.36035C188.731 4.36035 189.186 4.49219 189.543 4.75586C189.906 5.01367 190.144 5.33301 190.255 5.71387C190.366 6.08887 190.422 6.63965 190.422 7.36621V11.5146H191.854V13H188.752V7.43652C188.752 6.79199 188.655 6.37305 188.462 6.17969C188.269 5.98047 188.031 5.88086 187.75 5.88086C187.012 5.88086 186.177 6.24121 185.245 6.96191V11.5146H186.713V13H182.081V11.5146H183.575V5.97754H182.081V4.49219H185.245ZM201.698 11.5146V13H198.561V12.0244C197.582 12.7686 196.645 13.1406 195.748 13.1406C195.18 13.1406 194.708 13.0176 194.333 12.7715C193.964 12.5195 193.718 12.1973 193.595 11.8047C193.472 11.4062 193.41 10.7676 193.41 9.88867V5.97754H192.206V4.49219H195.08V9.67773C195.08 10.3047 195.098 10.7266 195.133 10.9434C195.168 11.1602 195.271 11.3389 195.44 11.4795C195.61 11.6201 195.824 11.6904 196.082 11.6904C196.855 11.6904 197.682 11.3213 198.561 10.583V5.97754H197.058V4.49219H200.23V11.5146H201.698ZM208.062 15.3291V5.97754H206.629V4.49219H209.731V5.82812C210.563 4.84961 211.571 4.36035 212.755 4.36035C213.95 4.36035 214.938 4.77051 215.717 5.59082C216.502 6.41113 216.895 7.47754 216.895 8.79004C216.895 10.167 216.47 11.2539 215.62 12.0508C214.771 12.8477 213.804 13.2461 212.72 13.2461C211.595 13.2461 210.599 12.8125 209.731 11.9453V15.3291H211.384V16.8145H206.506V15.3291H208.062ZM209.705 8.86914C209.705 9.33789 209.802 9.78613 209.995 10.2139C210.188 10.6416 210.496 11.002 210.918 11.2949C211.34 11.582 211.835 11.7256 212.403 11.7256C213.2 11.7256 213.856 11.459 214.372 10.9258C214.894 10.3926 215.154 9.66016 215.154 8.72852C215.154 7.82031 214.882 7.11133 214.337 6.60156C213.798 6.0918 213.183 5.83691 212.491 5.83691C211.753 5.83691 211.103 6.11523 210.54 6.67188C209.983 7.22266 209.705 7.95508 209.705 8.86914ZM227.591 11.5146V13H224.453V12.0244C223.475 12.7686 222.537 13.1406 221.641 13.1406C221.072 13.1406 220.601 13.0176 220.226 12.7715C219.856 12.5195 219.61 12.1973 219.487 11.8047C219.364 11.4062 219.303 10.7676 219.303 9.88867V5.97754H218.099V4.49219H220.973V9.67773C220.973 10.3047 220.99 10.7266 221.025 10.9434C221.061 11.1602 221.163 11.3389 221.333 11.4795C221.503 11.6201 221.717 11.6904 221.975 11.6904C222.748 11.6904 223.574 11.3213 224.453 10.583V5.97754H222.95V4.49219H226.123V11.5146H227.591ZM231.423 4.49219V5.52051C232.495 4.74707 233.474 4.36035 234.358 4.36035C234.909 4.36035 235.363 4.49219 235.721 4.75586C236.084 5.01367 236.321 5.33301 236.433 5.71387C236.544 6.08887 236.6 6.63965 236.6 7.36621V11.5146H238.032V13H234.93V7.43652C234.93 6.79199 234.833 6.37305 234.64 6.17969C234.446 5.98047 234.209 5.88086 233.928 5.88086C233.189 5.88086 232.354 6.24121 231.423 6.96191V11.5146H232.891V13H228.259V11.5146H229.753V5.97754H228.259V4.49219H231.423ZM241.908 12.8506L239.113 5.97754H237.698V4.49219H241.908V5.97754H240.889L242.726 10.6885L244.527 5.97754H243.402V4.49219H247.524V5.97754H246.259L242.049 16.8145H239.228V15.3555H240.889L241.908 12.8506ZM256.647 11.5146V13H253.729V11.9629C252.921 12.748 252.019 13.1406 251.022 13.1406C250.249 13.1406 249.575 12.8887 249.001 12.3848C248.433 11.8809 248.148 11.2363 248.148 10.4512C248.148 9.66016 248.45 9.00391 249.054 8.48242C249.663 7.96094 250.396 7.7002 251.251 7.7002C252.048 7.7002 252.818 7.94043 253.562 8.4209V7.57715C253.562 7.14355 253.521 6.80957 253.439 6.5752C253.357 6.34082 253.164 6.12988 252.859 5.94238C252.561 5.75488 252.168 5.66113 251.682 5.66113C250.844 5.66113 250.237 5.99512 249.862 6.66309L248.263 6.24121C248.972 4.91699 250.196 4.25488 251.937 4.25488C252.575 4.25488 253.126 4.34277 253.589 4.51855C254.058 4.68848 254.406 4.91113 254.635 5.18652C254.863 5.45605 255.016 5.74902 255.092 6.06543C255.174 6.38184 255.215 6.88574 255.215 7.57715V11.5146H256.647ZM253.562 9.83594C252.842 9.27344 252.112 8.99219 251.374 8.99219C250.911 8.99219 250.524 9.12695 250.214 9.39648C249.903 9.66602 249.748 10.0146 249.748 10.4424C249.748 10.8408 249.883 11.1748 250.152 11.4443C250.428 11.7139 250.8 11.8486 251.269 11.8486C252.077 11.8486 252.842 11.5088 253.562 10.8291V9.83594ZM1.47461 34V32.5146H2.98633V23.2598H1.47461V21.7744H4.62109V26.6963C5.45898 25.7354 6.4873 25.2549 7.70605 25.2549C8.87793 25.2549 9.85938 25.6592 10.6504 26.4678C11.4473 27.2705 11.8457 28.3311 11.8457 29.6494C11.8457 30.915 11.4561 31.9814 10.6768 32.8486C9.90332 33.71 8.91016 34.1406 7.69727 34.1406C7.01758 34.1406 6.39648 33.9941 5.83398 33.7012C5.27148 33.4082 4.86719 33.083 4.62109 32.7256V34H1.47461ZM4.67383 29.7637C4.67383 30.6484 4.94336 31.3516 5.48242 31.873C6.02734 32.3887 6.6543 32.6465 7.36328 32.6465C8.10742 32.6465 8.74902 32.3711 9.28809 31.8203C9.82715 31.2695 10.0967 30.5312 10.0967 29.6055C10.0967 28.709 9.82715 28.0146 9.28809 27.5225C8.75488 27.0244 8.12793 26.7754 7.40723 26.7754C6.69824 26.7754 6.06543 27.0332 5.50879 27.5488C4.95215 28.0586 4.67383 28.7969 4.67383 29.7637ZM21.9619 32.5146V34H19.0439V32.9629C18.2354 33.748 17.333 34.1406 16.3369 34.1406C15.5635 34.1406 14.8896 33.8887 14.3154 33.3848C13.7471 32.8809 13.4629 32.2363 13.4629 31.4512C13.4629 30.6602 13.7646 30.0039 14.3682 29.4824C14.9775 28.9609 15.71 28.7002 16.5654 28.7002C17.3623 28.7002 18.1328 28.9404 18.877 29.4209V28.5771C18.877 28.1436 18.8359 27.8096 18.7539 27.5752C18.6719 27.3408 18.4785 27.1299 18.1738 26.9424C17.875 26.7549 17.4824 26.6611 16.9961 26.6611C16.1582 26.6611 15.5518 26.9951 15.1768 27.6631L13.5771 27.2412C14.2861 25.917 15.5107 25.2549 17.251 25.2549C17.8896 25.2549 18.4404 25.3428 18.9033 25.5186C19.3721 25.6885 19.7207 25.9111 19.9492 26.1865C20.1777 26.4561 20.3301 26.749 20.4062 27.0654C20.4883 27.3818 20.5293 27.8857 20.5293 28.5771V32.5146H21.9619ZM18.877 30.8359C18.1562 30.2734 17.4268 29.9922 16.6885 29.9922C16.2256 29.9922 15.8389 30.127 15.5283 30.3965C15.2178 30.666 15.0625 31.0146 15.0625 31.4424C15.0625 31.8408 15.1973 32.1748 15.4668 32.4443C15.7422 32.7139 16.1143 32.8486 16.583 32.8486C17.3916 32.8486 18.1562 32.5088 18.877 31.8291V30.8359ZM25.8467 25.4922V26.5205C26.9189 25.7471 27.8975 25.3604 28.7822 25.3604C29.333 25.3604 29.7871 25.4922 30.1445 25.7559C30.5078 26.0137 30.7451 26.333 30.8564 26.7139C30.9678 27.0889 31.0234 27.6396 31.0234 28.3662V32.5146H32.4561V34H29.3535V28.4365C29.3535 27.792 29.2568 27.373 29.0635 27.1797C28.8701 26.9805 28.6328 26.8809 28.3516 26.8809C27.6133 26.8809 26.7783 27.2412 25.8467 27.9619V32.5146H27.3145V34H22.6826V32.5146H24.1768V26.9775H22.6826V25.4922H25.8467ZM36.332 33.8506L33.5371 26.9775H32.1221V25.4922H36.332V26.9775H35.3125L37.1494 31.6885L38.9512 26.9775H37.8262V25.4922H41.9482V26.9775H40.6826L36.4727 37.8145H33.6514V36.3555H35.3125L36.332 33.8506ZM51.0713 32.5146V34H48.1533V32.9629C47.3447 33.748 46.4424 34.1406 45.4463 34.1406C44.6729 34.1406 43.999 33.8887 43.4248 33.3848C42.8564 32.8809 42.5723 32.2363 42.5723 31.4512C42.5723 30.6602 42.874 30.0039 43.4775 29.4824C44.0869 28.9609 44.8193 28.7002 45.6748 28.7002C46.4717 28.7002 47.2422 28.9404 47.9863 29.4209V28.5771C47.9863 28.1436 47.9453 27.8096 47.8633 27.5752C47.7812 27.3408 47.5879 27.1299 47.2832 26.9424C46.9844 26.7549 46.5918 26.6611 46.1055 26.6611C45.2676 26.6611 44.6611 26.9951 44.2861 27.6631L42.6865 27.2412C43.3955 25.917 44.6201 25.2549 46.3604 25.2549C46.999 25.2549 47.5498 25.3428 48.0127 25.5186C48.4814 25.6885 48.8301 25.9111 49.0586 26.1865C49.2871 26.4561 49.4395 26.749 49.5156 27.0654C49.5977 27.3818 49.6387 27.8857 49.6387 28.5771V32.5146H51.0713ZM47.9863 30.8359C47.2656 30.2734 46.5361 29.9922 45.7979 29.9922C45.335 29.9922 44.9482 30.127 44.6377 30.3965C44.3271 30.666 44.1719 31.0146 44.1719 31.4424C44.1719 31.8408 44.3066 32.1748 44.5762 32.4443C44.8516 32.7139 45.2236 32.8486 45.6924 32.8486C46.501 32.8486 47.2656 32.5088 47.9863 31.8291V30.8359ZM53.2773 32.5146V23.2598H51.748V21.7744H54.9473V29.4121L58.1289 26.8721H56.7139V25.4922H61.416V26.8721H60.1152L56.9248 29.5264L59.9219 32.5146H61.416V34H59.2275L54.9473 29.7197V32.5146H56.415V34H51.748V32.5146H53.2773ZM74.8281 25.4922V28.709H73.334C73.2578 28.0938 73.0059 27.6221 72.5781 27.2939C72.1562 26.9658 71.6641 26.8018 71.1016 26.8018C70.3516 26.8018 69.7422 27.0684 69.2734 27.6016C68.8047 28.1289 68.5703 28.8232 68.5703 29.6846C68.5703 30.4873 68.793 31.1963 69.2383 31.8115C69.6836 32.4209 70.3281 32.7256 71.1719 32.7256C72.3438 32.7256 73.1934 32.1689 73.7207 31.0557L75.1006 31.7061C74.3389 33.3994 73.0059 34.2461 71.1016 34.2461C69.7539 34.2461 68.6934 33.7861 67.9199 32.8662C67.1465 31.9463 66.7598 30.8857 66.7598 29.6846C66.7598 28.4014 67.1816 27.3438 68.0254 26.5117C68.8691 25.6738 69.8418 25.2549 70.9434 25.2549C71.8867 25.2549 72.6836 25.5332 73.334 26.0898V25.4922H74.8281ZM84.8389 32.5146V34H81.9209V32.9629C81.1123 33.748 80.21 34.1406 79.2139 34.1406C78.4404 34.1406 77.7666 33.8887 77.1924 33.3848C76.624 32.8809 76.3398 32.2363 76.3398 31.4512C76.3398 30.6602 76.6416 30.0039 77.2451 29.4824C77.8545 28.9609 78.5869 28.7002 79.4424 28.7002C80.2393 28.7002 81.0098 28.9404 81.7539 29.4209V28.5771C81.7539 28.1436 81.7129 27.8096 81.6309 27.5752C81.5488 27.3408 81.3555 27.1299 81.0508 26.9424C80.752 26.7549 80.3594 26.6611 79.873 26.6611C79.0352 26.6611 78.4287 26.9951 78.0537 27.6631L76.4541 27.2412C77.1631 25.917 78.3877 25.2549 80.1279 25.2549C80.7666 25.2549 81.3174 25.3428 81.7803 25.5186C82.249 25.6885 82.5977 25.9111 82.8262 26.1865C83.0547 26.4561 83.207 26.749 83.2832 27.0654C83.3652 27.3818 83.4062 27.8857 83.4062 28.5771V32.5146H84.8389ZM81.7539 30.8359C81.0332 30.2734 80.3037 29.9922 79.5654 29.9922C79.1025 29.9922 78.7158 30.127 78.4053 30.3965C78.0947 30.666 77.9395 31.0146 77.9395 31.4424C77.9395 31.8408 78.0742 32.1748 78.3438 32.4443C78.6191 32.7139 78.9912 32.8486 79.46 32.8486C80.2686 32.8486 81.0332 32.5088 81.7539 31.8291V30.8359ZM87.1855 32.5146V26.9775H85.4717V25.4922H88.5215V27.4082C88.709 26.9102 88.9697 26.4971 89.3037 26.1689C89.6377 25.8408 89.9893 25.624 90.3584 25.5186C90.7334 25.4131 91.2432 25.3604 91.8877 25.3604H92.3271V27.0479H91.9932C91.1436 27.0479 90.5078 27.1328 90.0859 27.3027C89.6699 27.4727 89.3594 27.7832 89.1543 28.2344C88.9551 28.6797 88.8555 29.4824 88.8555 30.6426V32.5146H90.71V34H85.4717V32.5146H87.1855ZM101.45 32.5146V34H98.5322V32.9629C97.7236 33.748 96.8213 34.1406 95.8252 34.1406C95.0518 34.1406 94.3779 33.8887 93.8037 33.3848C93.2354 32.8809 92.9512 32.2363 92.9512 31.4512C92.9512 30.6602 93.2529 30.0039 93.8564 29.4824C94.4658 28.9609 95.1982 28.7002 96.0537 28.7002C96.8506 28.7002 97.6211 28.9404 98.3652 29.4209V28.5771C98.3652 28.1436 98.3242 27.8096 98.2422 27.5752C98.1602 27.3408 97.9668 27.1299 97.6621 26.9424C97.3633 26.7549 96.9707 26.6611 96.4844 26.6611C95.6465 26.6611 95.04 26.9951 94.665 27.6631L93.0654 27.2412C93.7744 25.917 94.999 25.2549 96.7393 25.2549C97.3779 25.2549 97.9287 25.3428 98.3916 25.5186C98.8604 25.6885 99.209 25.9111 99.4375 26.1865C99.666 26.4561 99.8184 26.749 99.8945 27.0654C99.9766 27.3818 100.018 27.8857 100.018 28.5771V32.5146H101.45ZM98.3652 30.8359C97.6445 30.2734 96.915 29.9922 96.1768 29.9922C95.7139 29.9922 95.3271 30.127 95.0166 30.3965C94.7061 30.666 94.5508 31.0146 94.5508 31.4424C94.5508 31.8408 94.6855 32.1748 94.9551 32.4443C95.2305 32.7139 95.6025 32.8486 96.0713 32.8486C96.8799 32.8486 97.6445 32.5088 98.3652 31.8291V30.8359ZM108.183 32.5146V26.9775H106.768V25.4922H109.853V26.5645C110.86 25.7617 111.848 25.3604 112.814 25.3604C113.787 25.3604 114.458 25.8027 114.827 26.6875C115.935 25.8027 116.966 25.3604 117.921 25.3604C118.472 25.3604 118.923 25.4834 119.274 25.7295C119.632 25.9697 119.872 26.2773 119.995 26.6523C120.118 27.0215 120.18 27.5693 120.18 28.2959V32.5146H121.665V34H118.51V28.5947C118.51 28.1025 118.486 27.7568 118.439 27.5576C118.398 27.3525 118.287 27.1855 118.105 27.0566C117.93 26.9219 117.716 26.8545 117.464 26.8545C116.749 26.8545 115.938 27.2207 115.029 27.9531V32.5146H116.488V34H113.359V28.4365C113.359 27.8799 113.277 27.4785 113.113 27.2324C112.955 26.9805 112.683 26.8545 112.296 26.8545C111.663 26.8545 110.849 27.2207 109.853 27.9531V32.5146H111.347V34H106.662V32.5146H108.183ZM131.412 30.168H124.258C124.363 30.9531 124.674 31.5889 125.189 32.0752C125.705 32.5615 126.364 32.8047 127.167 32.8047C128.333 32.8047 129.256 32.3359 129.936 31.3984L131.412 32.0488C130.932 32.793 130.308 33.3467 129.54 33.71C128.772 34.0674 127.97 34.2461 127.132 34.2461C125.831 34.2461 124.718 33.8418 123.792 33.0332C122.872 32.2188 122.412 31.123 122.412 29.7461C122.412 28.4395 122.86 27.3643 123.757 26.5205C124.659 25.6768 125.693 25.2549 126.859 25.2549C128.002 25.2549 129.036 25.668 129.962 26.4941C130.894 27.3145 131.377 28.5391 131.412 30.168ZM129.689 28.9551C129.572 28.3574 129.262 27.8184 128.758 27.3379C128.254 26.8516 127.636 26.6084 126.903 26.6084C126.235 26.6084 125.664 26.8281 125.189 27.2676C124.715 27.7012 124.425 28.2637 124.319 28.9551H129.689ZM135.728 25.4922V26.5205C136.8 25.7471 137.778 25.3604 138.663 25.3604C139.214 25.3604 139.668 25.4922 140.025 25.7559C140.389 26.0137 140.626 26.333 140.737 26.7139C140.849 27.0889 140.904 27.6396 140.904 28.3662V32.5146H142.337V34H139.234V28.4365C139.234 27.792 139.138 27.373 138.944 27.1797C138.751 26.9805 138.514 26.8809 138.232 26.8809C137.494 26.8809 136.659 27.2412 135.728 27.9619V32.5146H137.195V34H132.563V32.5146H134.058V26.9775H132.563V25.4922H135.728ZM153.446 25.4922V26.9775H151.917V33.3145C151.917 34.1699 151.873 34.8027 151.785 35.2129C151.697 35.6289 151.483 36.0508 151.144 36.4785C150.81 36.9121 150.306 37.2754 149.632 37.5684C148.958 37.8613 148.205 38.0078 147.373 38.0078C146.119 38.0078 145 37.6299 144.016 36.874L145.105 35.6611C145.844 36.2354 146.646 36.5225 147.514 36.5225C147.994 36.5225 148.439 36.4287 148.85 36.2412C149.26 36.0596 149.564 35.8369 149.764 35.5732C149.969 35.3096 150.101 35.0576 150.159 34.8174C150.218 34.583 150.247 34.1846 150.247 33.6221V32.8486C149.983 33.1826 149.57 33.499 149.008 33.7979C148.445 34.0967 147.83 34.2461 147.162 34.2461C145.943 34.2461 144.95 33.8242 144.183 32.9805C143.415 32.1367 143.031 31.0996 143.031 29.8691C143.031 28.5215 143.453 27.4346 144.297 26.6084C145.146 25.7764 146.128 25.3604 147.241 25.3604C148.366 25.3604 149.368 25.8086 150.247 26.7051V25.4922H153.446ZM144.807 29.834C144.807 30.6953 145.056 31.3984 145.554 31.9434C146.058 32.4883 146.699 32.7607 147.479 32.7607C148.24 32.7607 148.896 32.4883 149.447 31.9434C149.998 31.3926 150.273 30.6865 150.273 29.8252C150.273 28.9521 149.998 28.252 149.447 27.7246C148.896 27.1914 148.258 26.9248 147.531 26.9248C146.805 26.9248 146.169 27.1885 145.624 27.7158C145.079 28.2373 144.807 28.9434 144.807 29.834ZM164.521 25.4922V26.9775H162.991V33.3145C162.991 34.1699 162.947 34.8027 162.859 35.2129C162.771 35.6289 162.558 36.0508 162.218 36.4785C161.884 36.9121 161.38 37.2754 160.706 37.5684C160.032 37.8613 159.279 38.0078 158.447 38.0078C157.193 38.0078 156.074 37.6299 155.09 36.874L156.18 35.6611C156.918 36.2354 157.721 36.5225 158.588 36.5225C159.068 36.5225 159.514 36.4287 159.924 36.2412C160.334 36.0596 160.639 35.8369 160.838 35.5732C161.043 35.3096 161.175 35.0576 161.233 34.8174C161.292 34.583 161.321 34.1846 161.321 33.6221V32.8486C161.058 33.1826 160.645 33.499 160.082 33.7979C159.52 34.0967 158.904 34.2461 158.236 34.2461C157.018 34.2461 156.024 33.8242 155.257 32.9805C154.489 32.1367 154.105 31.0996 154.105 29.8691C154.105 28.5215 154.527 27.4346 155.371 26.6084C156.221 25.7764 157.202 25.3604 158.315 25.3604C159.44 25.3604 160.442 25.8086 161.321 26.7051V25.4922H164.521ZM155.881 29.834C155.881 30.6953 156.13 31.3984 156.628 31.9434C157.132 32.4883 157.773 32.7607 158.553 32.7607C159.314 32.7607 159.971 32.4883 160.521 31.9434C161.072 31.3926 161.348 30.6865 161.348 29.8252C161.348 28.9521 161.072 28.252 160.521 27.7246C159.971 27.1914 159.332 26.9248 158.605 26.9248C157.879 26.9248 157.243 27.1885 156.698 27.7158C156.153 28.2373 155.881 28.9434 155.881 29.834ZM173.767 32.5146V34H170.849V32.9629C170.04 33.748 169.138 34.1406 168.142 34.1406C167.368 34.1406 166.694 33.8887 166.12 33.3848C165.552 32.8809 165.268 32.2363 165.268 31.4512C165.268 30.6602 165.569 30.0039 166.173 29.4824C166.782 28.9609 167.515 28.7002 168.37 28.7002C169.167 28.7002 169.938 28.9404 170.682 29.4209V28.5771C170.682 28.1436 170.641 27.8096 170.559 27.5752C170.477 27.3408 170.283 27.1299 169.979 26.9424C169.68 26.7549 169.287 26.6611 168.801 26.6611C167.963 26.6611 167.356 26.9951 166.981 27.6631L165.382 27.2412C166.091 25.917 167.315 25.2549 169.056 25.2549C169.694 25.2549 170.245 25.3428 170.708 25.5186C171.177 25.6885 171.525 25.9111 171.754 26.1865C171.982 26.4561 172.135 26.749 172.211 27.0654C172.293 27.3818 172.334 27.8857 172.334 28.5771V32.5146H173.767ZM170.682 30.8359C169.961 30.2734 169.231 29.9922 168.493 29.9922C168.03 29.9922 167.644 30.127 167.333 30.3965C167.022 30.666 166.867 31.0146 166.867 31.4424C166.867 31.8408 167.002 32.1748 167.271 32.4443C167.547 32.7139 167.919 32.8486 168.388 32.8486C169.196 32.8486 169.961 32.5088 170.682 31.8291V30.8359ZM175.876 32.5146V23.2598H174.364V21.7744H177.546V32.5146H178.847V34H174.364V32.5146H175.876ZM180.93 22.6006C180.93 22.3311 181.023 22.0967 181.211 21.8975C181.404 21.6982 181.647 21.5986 181.94 21.5986C182.216 21.5986 182.453 21.6953 182.652 21.8887C182.852 22.082 182.951 22.3193 182.951 22.6006C182.951 22.8818 182.852 23.1221 182.652 23.3213C182.453 23.5146 182.216 23.6113 181.94 23.6113C181.659 23.6113 181.419 23.5117 181.22 23.3125C181.026 23.1133 180.93 22.876 180.93 22.6006ZM181.167 32.5146V26.9775H179.84V25.4922H182.837V32.5146H184.146V34H179.84V32.5146H181.167ZM190.686 22.6006C190.686 22.3311 190.779 22.0967 190.967 21.8975C191.16 21.6982 191.403 21.5986 191.696 21.5986C191.972 21.5986 192.209 21.6953 192.408 21.8887C192.607 22.082 192.707 22.3193 192.707 22.6006C192.707 22.8818 192.607 23.1221 192.408 23.3213C192.209 23.5146 191.972 23.6113 191.696 23.6113C191.415 23.6113 191.175 23.5117 190.976 23.3125C190.782 23.1133 190.686 22.876 190.686 22.6006ZM190.923 32.5146V26.9775H189.596V25.4922H192.593V32.5146H193.902V34H189.596V32.5146H190.923ZM197.919 25.4922V26.5205C198.991 25.7471 199.97 25.3604 200.854 25.3604C201.405 25.3604 201.859 25.4922 202.217 25.7559C202.58 26.0137 202.817 26.333 202.929 26.7139C203.04 27.0889 203.096 27.6396 203.096 28.3662V32.5146H204.528V34H201.426V28.4365C201.426 27.792 201.329 27.373 201.136 27.1797C200.942 26.9805 200.705 26.8809 200.424 26.8809C199.686 26.8809 198.851 27.2412 197.919 27.9619V32.5146H199.387V34H194.755V32.5146H196.249V26.9775H194.755V25.4922H197.919ZM206.321 32.5146V26.9775H205.082V25.501H206.321V24.2705C206.321 23.2334 206.541 22.5186 206.98 22.126C207.42 21.7275 207.938 21.5283 208.536 21.5283C209.825 21.5283 210.572 22.1816 210.777 23.4883L209.292 23.7168C209.233 23.1719 209.02 22.8994 208.65 22.8994C208.398 22.8994 208.226 22.9873 208.132 23.1631C208.038 23.333 207.991 23.7021 207.991 24.2705V25.501H209.45V26.9775H207.991V32.5146H209.608V34H205.082V32.5146H206.321ZM210.9 29.7461C210.9 28.4336 211.334 27.3584 212.201 26.5205C213.068 25.6768 214.126 25.2549 215.374 25.2549C216.599 25.2549 217.65 25.6709 218.529 26.5029C219.408 27.3291 219.848 28.4102 219.848 29.7461C219.848 31.082 219.408 32.166 218.529 32.998C217.656 33.8301 216.604 34.2461 215.374 34.2461C214.108 34.2461 213.045 33.8242 212.184 32.9805C211.328 32.1367 210.9 31.0586 210.9 29.7461ZM212.667 29.7461C212.667 30.584 212.928 31.2725 213.449 31.8115C213.977 32.3447 214.618 32.6113 215.374 32.6113C216.142 32.6113 216.783 32.3418 217.299 31.8027C217.82 31.2578 218.081 30.5723 218.081 29.7461C218.081 28.9141 217.817 28.2285 217.29 27.6895C216.763 27.1504 216.124 26.8809 215.374 26.8809C214.589 26.8809 213.941 27.1562 213.432 27.707C212.922 28.2578 212.667 28.9375 212.667 29.7461ZM222.643 32.5146V26.9775H220.929V25.4922H223.979V27.4082C224.166 26.9102 224.427 26.4971 224.761 26.1689C225.095 25.8408 225.446 25.624 225.815 25.5186C226.19 25.4131 226.7 25.3604 227.345 25.3604H227.784V27.0479H227.45C226.601 27.0479 225.965 27.1328 225.543 27.3027C225.127 27.4727 224.816 27.7832 224.611 28.2344C224.412 28.6797 224.312 29.4824 224.312 30.6426V32.5146H226.167V34H220.929V32.5146H222.643ZM230.034 32.5146V26.9775H228.619V25.4922H231.704V26.5645C232.712 25.7617 233.699 25.3604 234.666 25.3604C235.639 25.3604 236.31 25.8027 236.679 26.6875C237.786 25.8027 238.817 25.3604 239.772 25.3604C240.323 25.3604 240.774 25.4834 241.126 25.7295C241.483 25.9697 241.724 26.2773 241.847 26.6523C241.97 27.0215 242.031 27.5693 242.031 28.2959V32.5146H243.517V34H240.361V28.5947C240.361 28.1025 240.338 27.7568 240.291 27.5576C240.25 27.3525 240.139 27.1855 239.957 27.0566C239.781 26.9219 239.567 26.8545 239.315 26.8545C238.601 26.8545 237.789 27.2207 236.881 27.9531V32.5146H238.34V34H235.211V28.4365C235.211 27.8799 235.129 27.4785 234.965 27.2324C234.807 26.9805 234.534 26.8545 234.147 26.8545C233.515 26.8545 232.7 27.2207 231.704 27.9531V32.5146H233.198V34H228.514V32.5146H230.034ZM252.938 32.5146V34H250.021V32.9629C249.212 33.748 248.31 34.1406 247.313 34.1406C246.54 34.1406 245.866 33.8887 245.292 33.3848C244.724 32.8809 244.439 32.2363 244.439 31.4512C244.439 30.6602 244.741 30.0039 245.345 29.4824C245.954 28.9609 246.687 28.7002 247.542 28.7002C248.339 28.7002 249.109 28.9404 249.854 29.4209V28.5771C249.854 28.1436 249.812 27.8096 249.73 27.5752C249.648 27.3408 249.455 27.1299 249.15 26.9424C248.852 26.7549 248.459 26.6611 247.973 26.6611C247.135 26.6611 246.528 26.9951 246.153 27.6631L244.554 27.2412C245.263 25.917 246.487 25.2549 248.228 25.2549C248.866 25.2549 249.417 25.3428 249.88 25.5186C250.349 25.6885 250.697 25.9111 250.926 26.1865C251.154 26.4561 251.307 26.749 251.383 27.0654C251.465 27.3818 251.506 27.8857 251.506 28.5771V32.5146H252.938ZM249.854 30.8359C249.133 30.2734 248.403 29.9922 247.665 29.9922C247.202 29.9922 246.815 30.127 246.505 30.3965C246.194 30.666 246.039 31.0146 246.039 31.4424C246.039 31.8408 246.174 32.1748 246.443 32.4443C246.719 32.7139 247.091 32.8486 247.56 32.8486C248.368 32.8486 249.133 32.5088 249.854 31.8291V30.8359ZM253.914 34V31.082H255.408V31.3633C255.461 31.7617 255.675 32.0898 256.05 32.3477C256.431 32.6055 256.879 32.7344 257.395 32.7344C257.934 32.7344 258.364 32.6406 258.687 32.4531C259.009 32.2656 259.17 32.0049 259.17 31.6709C259.17 31.3486 259.035 31.1113 258.766 30.959C258.502 30.8066 257.975 30.666 257.184 30.5371C256.012 30.3379 255.174 30.0186 254.67 29.5791C254.172 29.1338 253.923 28.5596 253.923 27.8564C253.923 27.1475 254.195 26.5557 254.74 26.0811C255.285 25.6006 256.003 25.3604 256.894 25.3604C257.696 25.3604 258.388 25.5244 258.968 25.8525V25.4922H260.453V28.3135H258.968V27.7949C258.517 27.0977 257.86 26.749 256.999 26.749C256.56 26.749 256.196 26.8457 255.909 27.0391C255.628 27.2266 255.487 27.4785 255.487 27.7949C255.487 28.1172 255.616 28.3398 255.874 28.4629C256.138 28.5801 256.7 28.7061 257.562 28.8408C258.388 28.9697 259.012 29.1221 259.434 29.2979C259.855 29.4678 260.204 29.7549 260.479 30.1592C260.761 30.5576 260.901 31.0234 260.901 31.5566C260.901 32.3477 260.597 32.9775 259.987 33.4463C259.384 33.9092 258.599 34.1406 257.632 34.1406C256.724 34.1406 255.982 33.9355 255.408 33.5254V34H253.914ZM263.09 22.6006C263.09 22.3311 263.184 22.0967 263.371 21.8975C263.564 21.6982 263.808 21.5986 264.101 21.5986C264.376 21.5986 264.613 21.6953 264.812 21.8887C265.012 22.082 265.111 22.3193 265.111 22.6006C265.111 22.8818 265.012 23.1221 264.812 23.3213C264.613 23.5146 264.376 23.6113 264.101 23.6113C263.819 23.6113 263.579 23.5117 263.38 23.3125C263.187 23.1133 263.09 22.876 263.09 22.6006ZM263.327 32.5146V26.9775H262V25.4922H264.997V32.5146H266.307V34H262V32.5146H263.327ZM12.2061 53.5146V55H9.00684V53.752C8.1748 54.6777 7.16113 55.1406 5.96582 55.1406C4.8584 55.1406 3.88574 54.7627 3.04785 54.0068C2.20996 53.251 1.79102 52.1758 1.79102 50.7812C1.79102 49.3809 2.22168 48.2764 3.08301 47.4678C3.94434 46.6592 4.91699 46.2549 6.00098 46.2549C7.14941 46.2549 8.15137 46.7119 9.00684 47.626V44.2598H7.37207V42.7744H10.6768V53.5146H12.2061ZM3.5752 50.7373C3.5752 51.6748 3.83887 52.3955 4.36621 52.8994C4.89941 53.4033 5.53516 53.6553 6.27344 53.6553C6.98828 53.6553 7.62109 53.3916 8.17188 52.8643C8.72852 52.3311 9.00684 51.5957 9.00684 50.6582C9.00684 49.7148 8.72266 49.0029 8.1543 48.5225C7.5918 48.042 6.95898 47.8018 6.25586 47.8018C5.5 47.8018 4.86426 48.0859 4.34863 48.6543C3.83301 49.2168 3.5752 49.9111 3.5752 50.7373ZM21.5752 53.5146V55H18.6572V53.9629C17.8486 54.748 16.9463 55.1406 15.9502 55.1406C15.1768 55.1406 14.5029 54.8887 13.9287 54.3848C13.3604 53.8809 13.0762 53.2363 13.0762 52.4512C13.0762 51.6602 13.3779 51.0039 13.9814 50.4824C14.5908 49.9609 15.3232 49.7002 16.1787 49.7002C16.9756 49.7002 17.7461 49.9404 18.4902 50.4209V49.5771C18.4902 49.1436 18.4492 48.8096 18.3672 48.5752C18.2852 48.3408 18.0918 48.1299 17.7871 47.9424C17.4883 47.7549 17.0957 47.6611 16.6094 47.6611C15.7715 47.6611 15.165 47.9951 14.79 48.6631L13.1904 48.2412C13.8994 46.917 15.124 46.2549 16.8643 46.2549C17.5029 46.2549 18.0537 46.3428 18.5166 46.5186C18.9854 46.6885 19.334 46.9111 19.5625 47.1865C19.791 47.4561 19.9434 47.749 20.0195 48.0654C20.1016 48.3818 20.1426 48.8857 20.1426 49.5771V53.5146H21.5752ZM18.4902 51.8359C17.7695 51.2734 17.04 50.9922 16.3018 50.9922C15.8389 50.9922 15.4521 51.127 15.1416 51.3965C14.8311 51.666 14.6758 52.0146 14.6758 52.4424C14.6758 52.8408 14.8105 53.1748 15.0801 53.4443C15.3555 53.7139 15.7275 53.8486 16.1963 53.8486C17.0049 53.8486 17.7695 53.5088 18.4902 52.8291V51.8359ZM23.9219 53.5146V47.9775H22.208V46.4922H25.2578V48.4082C25.4453 47.9102 25.7061 47.4971 26.04 47.1689C26.374 46.8408 26.7256 46.624 27.0947 46.5186C27.4697 46.4131 27.9795 46.3604 28.624 46.3604H29.0635V48.0479H28.7295C27.8799 48.0479 27.2441 48.1328 26.8223 48.3027C26.4062 48.4727 26.0957 48.7832 25.8906 49.2344C25.6914 49.6797 25.5918 50.4824 25.5918 51.6426V53.5146H27.4463V55H22.208V53.5146H23.9219ZM31.3574 43.6006C31.3574 43.3311 31.4512 43.0967 31.6387 42.8975C31.832 42.6982 32.0752 42.5986 32.3682 42.5986C32.6436 42.5986 32.8809 42.6953 33.0801 42.8887C33.2793 43.082 33.3789 43.3193 33.3789 43.6006C33.3789 43.8818 33.2793 44.1221 33.0801 44.3213C32.8809 44.5146 32.6436 44.6113 32.3682 44.6113C32.0869 44.6113 31.8467 44.5117 31.6475 44.3125C31.4541 44.1133 31.3574 43.876 31.3574 43.6006ZM31.5947 53.5146V47.9775H30.2676V46.4922H33.2646V53.5146H34.5742V55H30.2676V53.5146H31.5947ZM43.0908 46.4922V47.5205C44.1631 46.7471 45.1416 46.3604 46.0264 46.3604C46.5771 46.3604 47.0312 46.4922 47.3887 46.7559C47.752 47.0137 47.9893 47.333 48.1006 47.7139C48.2119 48.0889 48.2676 48.6396 48.2676 49.3662V53.5146H49.7002V55H46.5977V49.4365C46.5977 48.792 46.501 48.373 46.3076 48.1797C46.1143 47.9805 45.877 47.8809 45.5957 47.8809C44.8574 47.8809 44.0225 48.2412 43.0908 48.9619V53.5146H44.5586V55H39.9268V53.5146H41.4209V47.9775H39.9268V46.4922H43.0908ZM59.0869 53.5146V55H56.1689V53.9629C55.3604 54.748 54.458 55.1406 53.4619 55.1406C52.6885 55.1406 52.0146 54.8887 51.4404 54.3848C50.8721 53.8809 50.5879 53.2363 50.5879 52.4512C50.5879 51.6602 50.8896 51.0039 51.4932 50.4824C52.1025 49.9609 52.835 49.7002 53.6904 49.7002C54.4873 49.7002 55.2578 49.9404 56.002 50.4209V49.5771C56.002 49.1436 55.9609 48.8096 55.8789 48.5752C55.7969 48.3408 55.6035 48.1299 55.2988 47.9424C55 47.7549 54.6074 47.6611 54.1211 47.6611C53.2832 47.6611 52.6768 47.9951 52.3018 48.6631L50.7021 48.2412C51.4111 46.917 52.6357 46.2549 54.376 46.2549C55.0146 46.2549 55.5654 46.3428 56.0283 46.5186C56.4971 46.6885 56.8457 46.9111 57.0742 47.1865C57.3027 47.4561 57.4551 47.749 57.5312 48.0654C57.6133 48.3818 57.6543 48.8857 57.6543 49.5771V53.5146H59.0869ZM56.002 51.8359C55.2812 51.2734 54.5518 50.9922 53.8135 50.9922C53.3506 50.9922 52.9639 51.127 52.6533 51.3965C52.3428 51.666 52.1875 52.0146 52.1875 52.4424C52.1875 52.8408 52.3223 53.1748 52.5918 53.4443C52.8672 53.7139 53.2393 53.8486 53.708 53.8486C54.5166 53.8486 55.2812 53.5088 56.002 52.8291V51.8359ZM61.4336 53.5146V47.9775H59.7197V46.4922H62.7695V48.4082C62.957 47.9102 63.2178 47.4971 63.5518 47.1689C63.8857 46.8408 64.2373 46.624 64.6064 46.5186C64.9814 46.4131 65.4912 46.3604 66.1357 46.3604H66.5752V48.0479H66.2412C65.3916 48.0479 64.7559 48.1328 64.334 48.3027C63.918 48.4727 63.6074 48.7832 63.4023 49.2344C63.2031 49.6797 63.1035 50.4824 63.1035 51.6426V53.5146H64.958V55H59.7197V53.5146H61.4336ZM75.6982 53.5146V55H72.7803V53.9629C71.9717 54.748 71.0693 55.1406 70.0732 55.1406C69.2998 55.1406 68.626 54.8887 68.0518 54.3848C67.4834 53.8809 67.1992 53.2363 67.1992 52.4512C67.1992 51.6602 67.501 51.0039 68.1045 50.4824C68.7139 49.9609 69.4463 49.7002 70.3018 49.7002C71.0986 49.7002 71.8691 49.9404 72.6133 50.4209V49.5771C72.6133 49.1436 72.5723 48.8096 72.4902 48.5752C72.4082 48.3408 72.2148 48.1299 71.9102 47.9424C71.6113 47.7549 71.2188 47.6611 70.7324 47.6611C69.8945 47.6611 69.2881 47.9951 68.9131 48.6631L67.3135 48.2412C68.0225 46.917 69.2471 46.2549 70.9873 46.2549C71.626 46.2549 72.1768 46.3428 72.6396 46.5186C73.1084 46.6885 73.457 46.9111 73.6855 47.1865C73.9141 47.4561 74.0664 47.749 74.1426 48.0654C74.2246 48.3818 74.2656 48.8857 74.2656 49.5771V53.5146H75.6982ZM72.6133 51.8359C71.8926 51.2734 71.1631 50.9922 70.4248 50.9922C69.9619 50.9922 69.5752 51.127 69.2646 51.3965C68.9541 51.666 68.7988 52.0146 68.7988 52.4424C68.7988 52.8408 68.9336 53.1748 69.2031 53.4443C69.4785 53.7139 69.8506 53.8486 70.3193 53.8486C71.1279 53.8486 71.8926 53.5088 72.6133 52.8291V51.8359ZM76.6738 55V52.082H78.168V52.3633C78.2207 52.7617 78.4346 53.0898 78.8096 53.3477C79.1904 53.6055 79.6387 53.7344 80.1543 53.7344C80.6934 53.7344 81.124 53.6406 81.4463 53.4531C81.7686 53.2656 81.9297 53.0049 81.9297 52.6709C81.9297 52.3486 81.7949 52.1113 81.5254 51.959C81.2617 51.8066 80.7344 51.666 79.9434 51.5371C78.7715 51.3379 77.9336 51.0186 77.4297 50.5791C76.9316 50.1338 76.6826 49.5596 76.6826 48.8564C76.6826 48.1475 76.9551 47.5557 77.5 47.0811C78.0449 46.6006 78.7627 46.3604 79.6533 46.3604C80.4561 46.3604 81.1475 46.5244 81.7275 46.8525V46.4922H83.2129V49.3135H81.7275V48.7949C81.2764 48.0977 80.6201 47.749 79.7588 47.749C79.3193 47.749 78.9561 47.8457 78.6689 48.0391C78.3877 48.2266 78.2471 48.4785 78.2471 48.7949C78.2471 49.1172 78.376 49.3398 78.6338 49.4629C78.8975 49.5801 79.46 49.7061 80.3213 49.8408C81.1475 49.9697 81.7715 50.1221 82.1934 50.2979C82.6152 50.4678 82.9639 50.7549 83.2393 51.1592C83.5205 51.5576 83.6611 52.0234 83.6611 52.5566C83.6611 53.3477 83.3564 53.9775 82.7471 54.4463C82.1436 54.9092 81.3584 55.1406 80.3916 55.1406C79.4834 55.1406 78.7422 54.9355 78.168 54.5254V55H76.6738ZM94.1377 53.5146V55H91V54.0244C90.0215 54.7686 89.084 55.1406 88.1875 55.1406C87.6191 55.1406 87.1475 55.0176 86.7725 54.7715C86.4033 54.5195 86.1572 54.1973 86.0342 53.8047C85.9111 53.4062 85.8496 52.7676 85.8496 51.8887V47.9775H84.6455V46.4922H87.5195V51.6777C87.5195 52.3047 87.5371 52.7266 87.5723 52.9434C87.6074 53.1602 87.71 53.3389 87.8799 53.4795C88.0498 53.6201 88.2637 53.6904 88.5215 53.6904C89.2949 53.6904 90.1211 53.3213 91 52.583V47.9775H89.4971V46.4922H92.6699V53.5146H94.1377ZM96.3174 53.5146V47.9775H94.9023V46.4922H97.9873V47.5645C98.9951 46.7617 99.9824 46.3604 100.949 46.3604C101.922 46.3604 102.593 46.8027 102.962 47.6875C104.069 46.8027 105.101 46.3604 106.056 46.3604C106.606 46.3604 107.058 46.4834 107.409 46.7295C107.767 46.9697 108.007 47.2773 108.13 47.6523C108.253 48.0215 108.314 48.5693 108.314 49.2959V53.5146H109.8V55H106.645V49.5947C106.645 49.1025 106.621 48.7568 106.574 48.5576C106.533 48.3525 106.422 48.1855 106.24 48.0566C106.064 47.9219 105.851 47.8545 105.599 47.8545C104.884 47.8545 104.072 48.2207 103.164 48.9531V53.5146H104.623V55H101.494V49.4365C101.494 48.8799 101.412 48.4785 101.248 48.2324C101.09 47.9805 100.817 47.8545 100.431 47.8545C99.7979 47.8545 98.9834 48.2207 97.9873 48.9531V53.5146H99.4814V55H94.7969V53.5146H96.3174ZM110.371 55V53.5146H111.883V44.2598H110.371V42.7744H113.518V47.6963C114.355 46.7354 115.384 46.2549 116.603 46.2549C117.774 46.2549 118.756 46.6592 119.547 47.4678C120.344 48.2705 120.742 49.3311 120.742 50.6494C120.742 51.915 120.353 52.9814 119.573 53.8486C118.8 54.71 117.807 55.1406 116.594 55.1406C115.914 55.1406 115.293 54.9941 114.73 54.7012C114.168 54.4082 113.764 54.083 113.518 53.7256V55H110.371ZM113.57 50.7637C113.57 51.6484 113.84 52.3516 114.379 52.873C114.924 53.3887 115.551 53.6465 116.26 53.6465C117.004 53.6465 117.646 53.3711 118.185 52.8203C118.724 52.2695 118.993 51.5312 118.993 50.6055C118.993 49.709 118.724 49.0146 118.185 48.5225C117.651 48.0244 117.024 47.7754 116.304 47.7754C115.595 47.7754 114.962 48.0332 114.405 48.5488C113.849 49.0586 113.57 49.7969 113.57 50.7637ZM131.184 51.168H124.029C124.135 51.9531 124.445 52.5889 124.961 53.0752C125.477 53.5615 126.136 53.8047 126.938 53.8047C128.104 53.8047 129.027 53.3359 129.707 52.3984L131.184 53.0488C130.703 53.793 130.079 54.3467 129.312 54.71C128.544 55.0674 127.741 55.2461 126.903 55.2461C125.603 55.2461 124.489 54.8418 123.563 54.0332C122.644 53.2188 122.184 52.123 122.184 50.7461C122.184 49.4395 122.632 48.3643 123.528 47.5205C124.431 46.6768 125.465 46.2549 126.631 46.2549C127.773 46.2549 128.808 46.668 129.733 47.4941C130.665 48.3145 131.148 49.5391 131.184 51.168ZM129.461 49.9551C129.344 49.3574 129.033 48.8184 128.529 48.3379C128.025 47.8516 127.407 47.6084 126.675 47.6084C126.007 47.6084 125.436 47.8281 124.961 48.2676C124.486 48.7012 124.196 49.2637 124.091 49.9551H129.461ZM133.961 53.5146V47.9775H132.247V46.4922H135.297V48.4082C135.484 47.9102 135.745 47.4971 136.079 47.1689C136.413 46.8408 136.765 46.624 137.134 46.5186C137.509 46.4131 138.019 46.3604 138.663 46.3604H139.103V48.0479H138.769C137.919 48.0479 137.283 48.1328 136.861 48.3027C136.445 48.4727 136.135 48.7832 135.93 49.2344C135.73 49.6797 135.631 50.4824 135.631 51.6426V53.5146H137.485V55H132.247V53.5146H133.961ZM139.814 55V52.8379H141.977V55H139.814ZM2.90723 95.4707V86.3037H1.4043V84.7744H5.47363C6.59277 84.7744 7.43066 84.8418 7.9873 84.9766C8.5498 85.1113 9.04492 85.4541 9.47266 86.0049C9.90039 86.5498 10.1143 87.1914 10.1143 87.9297C10.1143 88.498 9.98535 89.0107 9.72754 89.4678C9.47559 89.9248 9.10352 90.2705 8.61133 90.5049C9.29102 90.7393 9.8125 91.1289 10.1758 91.6738C10.5449 92.2129 10.7295 92.8311 10.7295 93.5283C10.7295 94.1318 10.5918 94.6797 10.3164 95.1719C10.0469 95.6641 9.68652 96.0449 9.23535 96.3145C8.78418 96.584 8.28906 96.7656 7.75 96.8594C7.2168 96.9531 6.4873 97 5.56152 97H1.4043V95.4707H2.90723ZM4.75293 89.8633H5.9043C6.7832 89.8633 7.39551 89.7109 7.74121 89.4062C8.09277 89.0957 8.26855 88.6416 8.26855 88.0439C8.26855 86.8838 7.48047 86.3037 5.9043 86.3037H4.75293V89.8633ZM4.75293 95.4707H5.44727C6.35547 95.4707 7.02051 95.4268 7.44238 95.3389C7.86426 95.2451 8.20703 95.0312 8.4707 94.6973C8.74023 94.3574 8.875 93.9238 8.875 93.3965C8.875 92.916 8.74609 92.5146 8.48828 92.1924C8.23633 91.8643 7.9082 91.6475 7.50391 91.542C7.10547 91.4307 6.54004 91.375 5.80762 91.375H4.75293V95.4707ZM13.1641 85.6006C13.1641 85.3311 13.2578 85.0967 13.4453 84.8975C13.6387 84.6982 13.8818 84.5986 14.1748 84.5986C14.4502 84.5986 14.6875 84.6953 14.8867 84.8887C15.0859 85.082 15.1855 85.3193 15.1855 85.6006C15.1855 85.8818 15.0859 86.1221 14.8867 86.3213C14.6875 86.5146 14.4502 86.6113 14.1748 86.6113C13.8936 86.6113 13.6533 86.5117 13.4541 86.3125C13.2607 86.1133 13.1641 85.876 13.1641 85.6006ZM13.4014 95.5146V89.9775H12.0742V88.4922H15.0713V95.5146H16.3809V97H12.0742V95.5146H13.4014ZM26.0752 95.5146V97H23.1572V95.9629C22.3486 96.748 21.4463 97.1406 20.4502 97.1406C19.6768 97.1406 19.0029 96.8887 18.4287 96.3848C17.8604 95.8809 17.5762 95.2363 17.5762 94.4512C17.5762 93.6602 17.8779 93.0039 18.4814 92.4824C19.0908 91.9609 19.8232 91.7002 20.6787 91.7002C21.4756 91.7002 22.2461 91.9404 22.9902 92.4209V91.5771C22.9902 91.1436 22.9492 90.8096 22.8672 90.5752C22.7852 90.3408 22.5918 90.1299 22.2871 89.9424C21.9883 89.7549 21.5957 89.6611 21.1094 89.6611C20.2715 89.6611 19.665 89.9951 19.29 90.6631L17.6904 90.2412C18.3994 88.917 19.624 88.2549 21.3643 88.2549C22.0029 88.2549 22.5537 88.3428 23.0166 88.5186C23.4854 88.6885 23.834 88.9111 24.0625 89.1865C24.291 89.4561 24.4434 89.749 24.5195 90.0654C24.6016 90.3818 24.6426 90.8857 24.6426 91.5771V95.5146H26.0752ZM22.9902 93.8359C22.2695 93.2734 21.54 92.9922 20.8018 92.9922C20.3389 92.9922 19.9521 93.127 19.6416 93.3965C19.3311 93.666 19.1758 94.0146 19.1758 94.4424C19.1758 94.8408 19.3105 95.1748 19.5801 95.4443C19.8555 95.7139 20.2275 95.8486 20.6963 95.8486C21.5049 95.8486 22.2695 95.5088 22.9902 94.8291V93.8359ZM28.4219 95.5146V89.9775H26.708V88.4922H29.7578V90.4082C29.9453 89.9102 30.2061 89.4971 30.54 89.1689C30.874 88.8408 31.2256 88.624 31.5947 88.5186C31.9697 88.4131 32.4795 88.3604 33.124 88.3604H33.5635V90.0479H33.2295C32.3799 90.0479 31.7441 90.1328 31.3223 90.3027C30.9062 90.4727 30.5957 90.7832 30.3906 91.2344C30.1914 91.6797 30.0918 92.4824 30.0918 93.6426V95.5146H31.9463V97H26.708V95.5146H28.4219ZM40.2871 95.5146V86.2598H38.7578V84.7744H41.957V92.4121L45.1387 89.8721H43.7236V88.4922H48.4258V89.8721H47.125L43.9346 92.5264L46.9316 95.5146H48.4258V97H46.2373L41.957 92.7197V95.5146H43.4248V97H38.7578V95.5146H40.2871ZM57.9619 95.5146V97H55.0439V95.9629C54.2354 96.748 53.333 97.1406 52.3369 97.1406C51.5635 97.1406 50.8896 96.8887 50.3154 96.3848C49.7471 95.8809 49.4629 95.2363 49.4629 94.4512C49.4629 93.6602 49.7646 93.0039 50.3682 92.4824C50.9775 91.9609 51.71 91.7002 52.5654 91.7002C53.3623 91.7002 54.1328 91.9404 54.877 92.4209V91.5771C54.877 91.1436 54.8359 90.8096 54.7539 90.5752C54.6719 90.3408 54.4785 90.1299 54.1738 89.9424C53.875 89.7549 53.4824 89.6611 52.9961 89.6611C52.1582 89.6611 51.5518 89.9951 51.1768 90.6631L49.5771 90.2412C50.2861 88.917 51.5107 88.2549 53.251 88.2549C53.8896 88.2549 54.4404 88.3428 54.9033 88.5186C55.3721 88.6885 55.7207 88.9111 55.9492 89.1865C56.1777 89.4561 56.3301 89.749 56.4062 90.0654C56.4883 90.3818 56.5293 90.8857 56.5293 91.5771V95.5146H57.9619ZM54.877 93.8359C54.1562 93.2734 53.4268 92.9922 52.6885 92.9922C52.2256 92.9922 51.8389 93.127 51.5283 93.3965C51.2178 93.666 51.0625 94.0146 51.0625 94.4424C51.0625 94.8408 51.1973 95.1748 51.4668 95.4443C51.7422 95.7139 52.1143 95.8486 52.583 95.8486C53.3916 95.8486 54.1562 95.5088 54.877 94.8291V93.8359ZM62.1895 96.8506L59.3945 89.9775H57.9795V88.4922H62.1895V89.9775H61.1699L63.0068 94.6885L64.8086 89.9775H63.6836V88.4922H67.8057V89.9775H66.54L62.3301 100.814H59.5088V99.3555H61.1699L62.1895 96.8506ZM76.9287 95.5146V97H74.0107V95.9629C73.2021 96.748 72.2998 97.1406 71.3037 97.1406C70.5303 97.1406 69.8564 96.8887 69.2822 96.3848C68.7139 95.8809 68.4297 95.2363 68.4297 94.4512C68.4297 93.6602 68.7314 93.0039 69.335 92.4824C69.9443 91.9609 70.6768 91.7002 71.5322 91.7002C72.3291 91.7002 73.0996 91.9404 73.8438 92.4209V91.5771C73.8438 91.1436 73.8027 90.8096 73.7207 90.5752C73.6387 90.3408 73.4453 90.1299 73.1406 89.9424C72.8418 89.7549 72.4492 89.6611 71.9629 89.6611C71.125 89.6611 70.5186 89.9951 70.1436 90.6631L68.5439 90.2412C69.2529 88.917 70.4775 88.2549 72.2178 88.2549C72.8564 88.2549 73.4072 88.3428 73.8701 88.5186C74.3389 88.6885 74.6875 88.9111 74.916 89.1865C75.1445 89.4561 75.2969 89.749 75.373 90.0654C75.4551 90.3818 75.4961 90.8857 75.4961 91.5771V95.5146H76.9287ZM73.8438 93.8359C73.123 93.2734 72.3936 92.9922 71.6553 92.9922C71.1924 92.9922 70.8057 93.127 70.4951 93.3965C70.1846 93.666 70.0293 94.0146 70.0293 94.4424C70.0293 94.8408 70.1641 95.1748 70.4336 95.4443C70.709 95.7139 71.0811 95.8486 71.5498 95.8486C72.3584 95.8486 73.123 95.5088 73.8438 94.8291V93.8359ZM79.1348 95.5146V86.2598H77.6055V84.7744H80.8047V92.4121L83.9863 89.8721H82.5713V88.4922H87.2734V89.8721H85.9727L82.7822 92.5264L85.7793 95.5146H87.2734V97H85.085L80.8047 92.7197V95.5146H82.2725V97H77.6055V95.5146H79.1348ZM93.9795 95.5146V89.9775H92.5645V88.4922H95.6494V89.5645C96.6572 88.7617 97.6445 88.3604 98.6113 88.3604C99.584 88.3604 100.255 88.8027 100.624 89.6875C101.731 88.8027 102.763 88.3604 103.718 88.3604C104.269 88.3604 104.72 88.4834 105.071 88.7295C105.429 88.9697 105.669 89.2773 105.792 89.6523C105.915 90.0215 105.977 90.5693 105.977 91.2959V95.5146H107.462V97H104.307V91.5947C104.307 91.1025 104.283 90.7568 104.236 90.5576C104.195 90.3525 104.084 90.1855 103.902 90.0566C103.727 89.9219 103.513 89.8545 103.261 89.8545C102.546 89.8545 101.734 90.2207 100.826 90.9531V95.5146H102.285V97H99.1562V91.4365C99.1562 90.8799 99.0742 90.4785 98.9102 90.2324C98.752 89.9805 98.4795 89.8545 98.0928 89.8545C97.46 89.8545 96.6455 90.2207 95.6494 90.9531V95.5146H97.1436V97H92.459V95.5146H93.9795ZM116.884 95.5146V97H113.966V95.9629C113.157 96.748 112.255 97.1406 111.259 97.1406C110.485 97.1406 109.812 96.8887 109.237 96.3848C108.669 95.8809 108.385 95.2363 108.385 94.4512C108.385 93.6602 108.687 93.0039 109.29 92.4824C109.899 91.9609 110.632 91.7002 111.487 91.7002C112.284 91.7002 113.055 91.9404 113.799 92.4209V91.5771C113.799 91.1436 113.758 90.8096 113.676 90.5752C113.594 90.3408 113.4 90.1299 113.096 89.9424C112.797 89.7549 112.404 89.6611 111.918 89.6611C111.08 89.6611 110.474 89.9951 110.099 90.6631L108.499 90.2412C109.208 88.917 110.433 88.2549 112.173 88.2549C112.812 88.2549 113.362 88.3428 113.825 88.5186C114.294 88.6885 114.643 88.9111 114.871 89.1865C115.1 89.4561 115.252 89.749 115.328 90.0654C115.41 90.3818 115.451 90.8857 115.451 91.5771V95.5146H116.884ZM113.799 93.8359C113.078 93.2734 112.349 92.9922 111.61 92.9922C111.147 92.9922 110.761 93.127 110.45 93.3965C110.14 93.666 109.984 94.0146 109.984 94.4424C109.984 94.8408 110.119 95.1748 110.389 95.4443C110.664 95.7139 111.036 95.8486 111.505 95.8486C112.313 95.8486 113.078 95.5088 113.799 94.8291V93.8359ZM117.859 97V94.082H119.354V94.3633C119.406 94.7617 119.62 95.0898 119.995 95.3477C120.376 95.6055 120.824 95.7344 121.34 95.7344C121.879 95.7344 122.31 95.6406 122.632 95.4531C122.954 95.2656 123.115 95.0049 123.115 94.6709C123.115 94.3486 122.98 94.1113 122.711 93.959C122.447 93.8066 121.92 93.666 121.129 93.5371C119.957 93.3379 119.119 93.0186 118.615 92.5791C118.117 92.1338 117.868 91.5596 117.868 90.8564C117.868 90.1475 118.141 89.5557 118.686 89.0811C119.23 88.6006 119.948 88.3604 120.839 88.3604C121.642 88.3604 122.333 88.5244 122.913 88.8525V88.4922H124.398V91.3135H122.913V90.7949C122.462 90.0977 121.806 89.749 120.944 89.749C120.505 89.749 120.142 89.8457 119.854 90.0391C119.573 90.2266 119.433 90.4785 119.433 90.7949C119.433 91.1172 119.562 91.3398 119.819 91.4629C120.083 91.5801 120.646 91.7061 121.507 91.8408C122.333 91.9697 122.957 92.1221 123.379 92.2979C123.801 92.4678 124.149 92.7549 124.425 93.1592C124.706 93.5576 124.847 94.0234 124.847 94.5566C124.847 95.3477 124.542 95.9775 123.933 96.4463C123.329 96.9092 122.544 97.1406 121.577 97.1406C120.669 97.1406 119.928 96.9355 119.354 96.5254V97H117.859ZM131.755 95.4707V86.3037H130.428V84.7744H134.928V86.3037H133.601V95.4707H134.928V97H130.428V95.4707H131.755ZM139.155 88.4922V89.5205C140.228 88.7471 141.206 88.3604 142.091 88.3604C142.642 88.3604 143.096 88.4922 143.453 88.7559C143.816 89.0137 144.054 89.333 144.165 89.7139C144.276 90.0889 144.332 90.6396 144.332 91.3662V95.5146H145.765V97H142.662V91.4365C142.662 90.792 142.565 90.373 142.372 90.1797C142.179 89.9805 141.941 89.8809 141.66 89.8809C140.922 89.8809 140.087 90.2412 139.155 90.9619V95.5146H140.623V97H135.991V95.5146H137.485V89.9775H135.991V88.4922H139.155ZM155.608 95.5146V97H152.471V96.0244C151.492 96.7686 150.555 97.1406 149.658 97.1406C149.09 97.1406 148.618 97.0176 148.243 96.7715C147.874 96.5195 147.628 96.1973 147.505 95.8047C147.382 95.4062 147.32 94.7676 147.32 93.8887V89.9775H146.116V88.4922H148.99V93.6777C148.99 94.3047 149.008 94.7266 149.043 94.9434C149.078 95.1602 149.181 95.3389 149.351 95.4795C149.521 95.6201 149.734 95.6904 149.992 95.6904C150.766 95.6904 151.592 95.3213 152.471 94.583V89.9775H150.968V88.4922H154.141V95.5146H155.608ZM157.34 97V94.8379H159.502V96.7188C159.502 97.3574 159.452 97.8525 159.353 98.2041C159.253 98.5557 159.039 98.8428 158.711 99.0654C158.389 99.2939 157.932 99.417 157.34 99.4346V98.5205C158.043 98.415 158.395 97.9785 158.395 97.2109C158.395 97.1641 158.392 97.0938 158.386 97H157.34ZM5.94824 116.471V112.437L2.30957 107.304H0.81543V105.774H5.84277V107.304H4.30469L7.00293 111.074L9.46387 107.304H7.92578V105.774H12.8037V107.304H11.1865L7.79395 112.437V116.471H9.46387V118H4.30469V116.471H5.94824ZM21.1533 116.515V118H18.0156V117.024C17.0371 117.769 16.0996 118.141 15.2031 118.141C14.6348 118.141 14.1631 118.018 13.7881 117.771C13.4189 117.52 13.1729 117.197 13.0498 116.805C12.9268 116.406 12.8652 115.768 12.8652 114.889V110.978H11.6611V109.492H14.5352V114.678C14.5352 115.305 14.5527 115.727 14.5879 115.943C14.623 116.16 14.7256 116.339 14.8955 116.479C15.0654 116.62 15.2793 116.69 15.5371 116.69C16.3105 116.69 17.1367 116.321 18.0156 115.583V110.978H16.5127V109.492H19.6855V116.515H21.1533ZM23.3066 116.515V107.26H21.7773V105.774H24.9766V113.412L28.1582 110.872H26.7432V109.492H31.4453V110.872H30.1445L26.9541 113.526L29.9512 116.515H31.4453V118H29.2568L24.9766 113.72V116.515H26.4443V118H21.7773V116.515H23.3066ZM33.2031 118V115.838H35.3652V117.719C35.3652 118.357 35.3154 118.853 35.2158 119.204C35.1162 119.556 34.9023 119.843 34.5742 120.065C34.252 120.294 33.7949 120.417 33.2031 120.435V119.521C33.9062 119.415 34.2578 118.979 34.2578 118.211C34.2578 118.164 34.2549 118.094 34.249 118H33.2031ZM41.9395 116.515V107.26H40.4102V105.774H43.6094V113.412L46.791 110.872H45.376V109.492H50.0781V110.872H48.7773L45.5869 113.526L48.584 116.515H50.0781V118H47.8896L43.6094 113.72V116.515H45.0771V118H40.4102V116.515H41.9395ZM51.959 106.601C51.959 106.331 52.0527 106.097 52.2402 105.897C52.4336 105.698 52.6768 105.599 52.9697 105.599C53.2451 105.599 53.4824 105.695 53.6816 105.889C53.8809 106.082 53.9805 106.319 53.9805 106.601C53.9805 106.882 53.8809 107.122 53.6816 107.321C53.4824 107.515 53.2451 107.611 52.9697 107.611C52.6885 107.611 52.4482 107.512 52.249 107.312C52.0557 107.113 51.959 106.876 51.959 106.601ZM52.1963 116.515V110.978H50.8691V109.492H53.8662V116.515H55.1758V118H50.8691V116.515H52.1963ZM56.0898 110.978V109.492H57.1973V108.183L58.8672 106.653V109.492H60.4404V110.978H58.8672V115.108C58.8672 115.771 58.9023 116.181 58.9727 116.339C59.0488 116.491 59.2334 116.567 59.5264 116.567C59.8369 116.567 60.1416 116.509 60.4404 116.392V117.912C60.0127 118.064 59.585 118.141 59.1572 118.141C58.6475 118.141 58.2344 118.029 57.918 117.807C57.6016 117.578 57.4023 117.294 57.3203 116.954C57.2383 116.614 57.1973 116.028 57.1973 115.196V110.978H56.0898ZM70.3018 116.515V118H67.3838V116.963C66.5752 117.748 65.6729 118.141 64.6768 118.141C63.9033 118.141 63.2295 117.889 62.6553 117.385C62.0869 116.881 61.8027 116.236 61.8027 115.451C61.8027 114.66 62.1045 114.004 62.708 113.482C63.3174 112.961 64.0498 112.7 64.9053 112.7C65.7021 112.7 66.4727 112.94 67.2168 113.421V112.577C67.2168 112.144 67.1758 111.81 67.0938 111.575C67.0117 111.341 66.8184 111.13 66.5137 110.942C66.2148 110.755 65.8223 110.661 65.3359 110.661C64.498 110.661 63.8916 110.995 63.5166 111.663L61.917 111.241C62.626 109.917 63.8506 109.255 65.5908 109.255C66.2295 109.255 66.7803 109.343 67.2432 109.519C67.7119 109.688 68.0605 109.911 68.2891 110.187C68.5176 110.456 68.6699 110.749 68.7461 111.065C68.8281 111.382 68.8691 111.886 68.8691 112.577V116.515H70.3018ZM67.2168 114.836C66.4961 114.273 65.7666 113.992 65.0283 113.992C64.5654 113.992 64.1787 114.127 63.8682 114.396C63.5576 114.666 63.4023 115.015 63.4023 115.442C63.4023 115.841 63.5371 116.175 63.8066 116.444C64.082 116.714 64.4541 116.849 64.9229 116.849C65.7314 116.849 66.4961 116.509 67.2168 115.829V114.836ZM76.9111 116.515V107.26H75.3994V105.774H78.5811V116.515H79.8818V118H75.3994V116.515H76.9111ZM89.6201 116.515V118H86.7021V116.963C85.8936 117.748 84.9912 118.141 83.9951 118.141C83.2217 118.141 82.5479 117.889 81.9736 117.385C81.4053 116.881 81.1211 116.236 81.1211 115.451C81.1211 114.66 81.4229 114.004 82.0264 113.482C82.6357 112.961 83.3682 112.7 84.2236 112.7C85.0205 112.7 85.791 112.94 86.5352 113.421V112.577C86.5352 112.144 86.4941 111.81 86.4121 111.575C86.3301 111.341 86.1367 111.13 85.832 110.942C85.5332 110.755 85.1406 110.661 84.6543 110.661C83.8164 110.661 83.21 110.995 82.835 111.663L81.2354 111.241C81.9443 109.917 83.1689 109.255 84.9092 109.255C85.5479 109.255 86.0986 109.343 86.5615 109.519C87.0303 109.688 87.3789 109.911 87.6074 110.187C87.8359 110.456 87.9883 110.749 88.0645 111.065C88.1465 111.382 88.1875 111.886 88.1875 112.577V116.515H89.6201ZM86.5352 114.836C85.8145 114.273 85.085 113.992 84.3467 113.992C83.8838 113.992 83.4971 114.127 83.1865 114.396C82.876 114.666 82.7207 115.015 82.7207 115.442C82.7207 115.841 82.8555 116.175 83.125 116.444C83.4004 116.714 83.7725 116.849 84.2412 116.849C85.0498 116.849 85.8145 116.509 86.5352 115.829V114.836ZM90.4023 110.978V109.492H91.5098V108.183L93.1797 106.653V109.492H94.7529V110.978H93.1797V115.108C93.1797 115.771 93.2148 116.181 93.2852 116.339C93.3613 116.491 93.5459 116.567 93.8389 116.567C94.1494 116.567 94.4541 116.509 94.7529 116.392V117.912C94.3252 118.064 93.8975 118.141 93.4697 118.141C92.96 118.141 92.5469 118.029 92.2305 117.807C91.9141 117.578 91.7148 117.294 91.6328 116.954C91.5508 116.614 91.5098 116.028 91.5098 115.196V110.978H90.4023ZM96.959 106.601C96.959 106.331 97.0527 106.097 97.2402 105.897C97.4336 105.698 97.6768 105.599 97.9697 105.599C98.2451 105.599 98.4824 105.695 98.6816 105.889C98.8809 106.082 98.9805 106.319 98.9805 106.601C98.9805 106.882 98.8809 107.122 98.6816 107.321C98.4824 107.515 98.2451 107.611 97.9697 107.611C97.6885 107.611 97.4482 107.512 97.249 107.312C97.0557 107.113 96.959 106.876 96.959 106.601ZM97.1963 116.515V110.978H95.8691V109.492H98.8662V116.515H100.176V118H95.8691V116.515H97.1963ZM102.452 116.515V107.26H100.914V105.774H104.122V110.468C105.124 109.659 106.076 109.255 106.979 109.255C107.541 109.255 108.004 109.372 108.367 109.606C108.73 109.841 108.977 110.151 109.105 110.538C109.24 110.919 109.308 111.479 109.308 112.217V116.515H110.758V118H107.638V112.797C107.638 112.152 107.617 111.722 107.576 111.505C107.535 111.288 107.421 111.109 107.233 110.969C107.052 110.828 106.835 110.758 106.583 110.758C105.938 110.758 105.118 111.124 104.122 111.856V116.515H105.599V118H100.914V116.515H102.452ZM120.188 116.515V118H117.271V116.963C116.462 117.748 115.56 118.141 114.563 118.141C113.79 118.141 113.116 117.889 112.542 117.385C111.974 116.881 111.689 116.236 111.689 115.451C111.689 114.66 111.991 114.004 112.595 113.482C113.204 112.961 113.937 112.7 114.792 112.7C115.589 112.7 116.359 112.94 117.104 113.421V112.577C117.104 112.144 117.062 111.81 116.98 111.575C116.898 111.341 116.705 111.13 116.4 110.942C116.102 110.755 115.709 110.661 115.223 110.661C114.385 110.661 113.778 110.995 113.403 111.663L111.804 111.241C112.513 109.917 113.737 109.255 115.478 109.255C116.116 109.255 116.667 109.343 117.13 109.519C117.599 109.688 117.947 109.911 118.176 110.187C118.404 110.456 118.557 110.749 118.633 111.065C118.715 111.382 118.756 111.886 118.756 112.577V116.515H120.188ZM117.104 114.836C116.383 114.273 115.653 113.992 114.915 113.992C114.452 113.992 114.065 114.127 113.755 114.396C113.444 114.666 113.289 115.015 113.289 115.442C113.289 115.841 113.424 116.175 113.693 116.444C113.969 116.714 114.341 116.849 114.81 116.849C115.618 116.849 116.383 116.509 117.104 115.829V114.836ZM124.073 109.492V110.521C125.146 109.747 126.124 109.36 127.009 109.36C127.56 109.36 128.014 109.492 128.371 109.756C128.734 110.014 128.972 110.333 129.083 110.714C129.194 111.089 129.25 111.64 129.25 112.366V116.515H130.683V118H127.58V112.437C127.58 111.792 127.483 111.373 127.29 111.18C127.097 110.98 126.859 110.881 126.578 110.881C125.84 110.881 125.005 111.241 124.073 111.962V116.515H125.541V118H120.909V116.515H122.403V110.978H120.909V109.492H124.073ZM135.789 110.978V109.492H136.896V108.183L138.566 106.653V109.492H140.14V110.978H138.566V115.108C138.566 115.771 138.602 116.181 138.672 116.339C138.748 116.491 138.933 116.567 139.226 116.567C139.536 116.567 139.841 116.509 140.14 116.392V117.912C139.712 118.064 139.284 118.141 138.856 118.141C138.347 118.141 137.934 118.029 137.617 117.807C137.301 117.578 137.102 117.294 137.02 116.954C136.938 116.614 136.896 116.028 136.896 115.196V110.978H135.789ZM150.326 114.168H143.172C143.277 114.953 143.588 115.589 144.104 116.075C144.619 116.562 145.278 116.805 146.081 116.805C147.247 116.805 148.17 116.336 148.85 115.398L150.326 116.049C149.846 116.793 149.222 117.347 148.454 117.71C147.687 118.067 146.884 118.246 146.046 118.246C144.745 118.246 143.632 117.842 142.706 117.033C141.786 116.219 141.326 115.123 141.326 113.746C141.326 112.439 141.774 111.364 142.671 110.521C143.573 109.677 144.607 109.255 145.773 109.255C146.916 109.255 147.95 109.668 148.876 110.494C149.808 111.314 150.291 112.539 150.326 114.168ZM148.604 112.955C148.486 112.357 148.176 111.818 147.672 111.338C147.168 110.852 146.55 110.608 145.817 110.608C145.149 110.608 144.578 110.828 144.104 111.268C143.629 111.701 143.339 112.264 143.233 112.955H148.604ZM151.188 118V116.515H152.699V107.26H151.188V105.774H154.334V110.696C155.172 109.735 156.2 109.255 157.419 109.255C158.591 109.255 159.572 109.659 160.363 110.468C161.16 111.271 161.559 112.331 161.559 113.649C161.559 114.915 161.169 115.981 160.39 116.849C159.616 117.71 158.623 118.141 157.41 118.141C156.73 118.141 156.109 117.994 155.547 117.701C154.984 117.408 154.58 117.083 154.334 116.726V118H151.188ZM154.387 113.764C154.387 114.648 154.656 115.352 155.195 115.873C155.74 116.389 156.367 116.646 157.076 116.646C157.82 116.646 158.462 116.371 159.001 115.82C159.54 115.27 159.81 114.531 159.81 113.605C159.81 112.709 159.54 112.015 159.001 111.522C158.468 111.024 157.841 110.775 157.12 110.775C156.411 110.775 155.778 111.033 155.222 111.549C154.665 112.059 154.387 112.797 154.387 113.764ZM171.675 116.515V118H168.757V116.963C167.948 117.748 167.046 118.141 166.05 118.141C165.276 118.141 164.603 117.889 164.028 117.385C163.46 116.881 163.176 116.236 163.176 115.451C163.176 114.66 163.478 114.004 164.081 113.482C164.69 112.961 165.423 112.7 166.278 112.7C167.075 112.7 167.846 112.94 168.59 113.421V112.577C168.59 112.144 168.549 111.81 168.467 111.575C168.385 111.341 168.191 111.13 167.887 110.942C167.588 110.755 167.195 110.661 166.709 110.661C165.871 110.661 165.265 110.995 164.89 111.663L163.29 111.241C163.999 109.917 165.224 109.255 166.964 109.255C167.603 109.255 168.153 109.343 168.616 109.519C169.085 109.688 169.434 109.911 169.662 110.187C169.891 110.456 170.043 110.749 170.119 111.065C170.201 111.382 170.242 111.886 170.242 112.577V116.515H171.675ZM168.59 114.836C167.869 114.273 167.14 113.992 166.401 113.992C165.938 113.992 165.552 114.127 165.241 114.396C164.931 114.666 164.775 115.015 164.775 115.442C164.775 115.841 164.91 116.175 165.18 116.444C165.455 116.714 165.827 116.849 166.296 116.849C167.104 116.849 167.869 116.509 168.59 115.829V114.836ZM173.881 116.515V107.26H172.352V105.774H175.551V113.412L178.732 110.872H177.317V109.492H182.02V110.872H180.719L177.528 113.526L180.525 116.515H182.02V118H179.831L175.551 113.72V116.515H177.019V118H172.352V116.515H173.881ZM188.699 116.515V107.26H187.17V105.774H190.369V113.412L193.551 110.872H192.136V109.492H196.838V110.872H195.537L192.347 113.526L195.344 116.515H196.838V118H194.649L190.369 113.72V116.515H191.837V118H187.17V116.515H188.699ZM206.374 116.515V118H203.456V116.963C202.647 117.748 201.745 118.141 200.749 118.141C199.976 118.141 199.302 117.889 198.728 117.385C198.159 116.881 197.875 116.236 197.875 115.451C197.875 114.66 198.177 114.004 198.78 113.482C199.39 112.961 200.122 112.7 200.978 112.7C201.774 112.7 202.545 112.94 203.289 113.421V112.577C203.289 112.144 203.248 111.81 203.166 111.575C203.084 111.341 202.891 111.13 202.586 110.942C202.287 110.755 201.895 110.661 201.408 110.661C200.57 110.661 199.964 110.995 199.589 111.663L197.989 111.241C198.698 109.917 199.923 109.255 201.663 109.255C202.302 109.255 202.853 109.343 203.315 109.519C203.784 109.688 204.133 109.911 204.361 110.187C204.59 110.456 204.742 110.749 204.818 111.065C204.9 111.382 204.941 111.886 204.941 112.577V116.515H206.374ZM203.289 114.836C202.568 114.273 201.839 113.992 201.101 113.992C200.638 113.992 200.251 114.127 199.94 114.396C199.63 114.666 199.475 115.015 199.475 115.442C199.475 115.841 199.609 116.175 199.879 116.444C200.154 116.714 200.526 116.849 200.995 116.849C201.804 116.849 202.568 116.509 203.289 115.829V114.836ZM207.156 110.978V109.492H208.264V108.183L209.934 106.653V109.492H211.507V110.978H209.934V115.108C209.934 115.771 209.969 116.181 210.039 116.339C210.115 116.491 210.3 116.567 210.593 116.567C210.903 116.567 211.208 116.509 211.507 116.392V117.912C211.079 118.064 210.651 118.141 210.224 118.141C209.714 118.141 209.301 118.029 208.984 117.807C208.668 117.578 208.469 117.294 208.387 116.954C208.305 116.614 208.264 116.028 208.264 115.196V110.978H207.156ZM221.368 116.515V118H218.45V116.963C217.642 117.748 216.739 118.141 215.743 118.141C214.97 118.141 214.296 117.889 213.722 117.385C213.153 116.881 212.869 116.236 212.869 115.451C212.869 114.66 213.171 114.004 213.774 113.482C214.384 112.961 215.116 112.7 215.972 112.7C216.769 112.7 217.539 112.94 218.283 113.421V112.577C218.283 112.144 218.242 111.81 218.16 111.575C218.078 111.341 217.885 111.13 217.58 110.942C217.281 110.755 216.889 110.661 216.402 110.661C215.564 110.661 214.958 110.995 214.583 111.663L212.983 111.241C213.692 109.917 214.917 109.255 216.657 109.255C217.296 109.255 217.847 109.343 218.31 109.519C218.778 109.688 219.127 109.911 219.355 110.187C219.584 110.456 219.736 110.749 219.812 111.065C219.895 111.382 219.936 111.886 219.936 112.577V116.515H221.368ZM218.283 114.836C217.562 114.273 216.833 113.992 216.095 113.992C215.632 113.992 215.245 114.127 214.935 114.396C214.624 114.666 214.469 115.015 214.469 115.442C214.469 115.841 214.604 116.175 214.873 116.444C215.148 116.714 215.521 116.849 215.989 116.849C216.798 116.849 217.562 116.509 218.283 115.829V114.836Z" fill="black"/>
</svg>
