<svg width="258" height="18" viewBox="0 0 258 18" fill="none" xmlns="http://www.w3.org/2000/svg">
<path d="M1.90723 11.4707V2.30371H0.439453V0.774414H4.62305L7.83984 9.15039L11.0918 0.774414H15.3193V2.30371H13.8428V11.4707H15.3193V13H10.7139V11.4707H12.1729V2.30371L7.9541 13.123H7.59375L3.41895 2.30371V11.4707H4.76367V13H0.439453V11.4707H1.90723ZM25.0752 11.5146V13H22.1572V11.9629C21.3486 12.748 20.4463 13.1406 19.4502 13.1406C18.6768 13.1406 18.0029 12.8887 17.4287 12.3848C16.8604 11.8809 16.5762 11.2363 16.5762 10.4512C16.5762 9.66016 16.8779 9.00391 17.4814 8.48242C18.0908 7.96094 18.8232 7.7002 19.6787 7.7002C20.4756 7.7002 21.2461 7.94043 21.9902 8.4209V7.57715C21.9902 7.14355 21.9492 6.80957 21.8672 6.5752C21.7852 6.34082 21.5918 6.12988 21.2871 5.94238C20.9883 5.75488 20.5957 5.66113 20.1094 5.66113C19.2715 5.66113 18.665 5.99512 18.29 6.66309L16.6904 6.24121C17.3994 4.91699 18.624 4.25488 20.3643 4.25488C21.0029 4.25488 21.5537 4.34277 22.0166 4.51855C22.4854 4.68848 22.834 4.91113 23.0625 5.18652C23.291 5.45605 23.4434 5.74902 23.5195 6.06543C23.6016 6.38184 23.6426 6.88574 23.6426 7.57715V11.5146H25.0752ZM21.9902 9.83594C21.2695 9.27344 20.54 8.99219 19.8018 8.99219C19.3389 8.99219 18.9521 9.12695 18.6416 9.39648C18.3311 9.66602 18.1758 10.0146 18.1758 10.4424C18.1758 10.8408 18.3105 11.1748 18.5801 11.4443C18.8555 11.7139 19.2275 11.8486 19.6963 11.8486C20.5049 11.8486 21.2695 11.5088 21.9902 10.8291V9.83594ZM26.9824 1.60059C26.9824 1.33105 27.0762 1.09668 27.2637 0.897461C27.457 0.698242 27.7002 0.598633 27.9932 0.598633C28.2686 0.598633 28.5059 0.695312 28.7051 0.888672C28.9043 1.08203 29.0039 1.31934 29.0039 1.60059C29.0039 1.88184 28.9043 2.12207 28.7051 2.32129C28.5059 2.51465 28.2686 2.61133 27.9932 2.61133C27.7119 2.61133 27.4717 2.51172 27.2725 2.3125C27.0791 2.11328 26.9824 1.87598 26.9824 1.60059ZM27.2197 11.5146V5.97754H25.8926V4.49219H28.8896V11.5146H30.1992V13H25.8926V11.5146H27.2197ZM34.2158 4.49219V5.52051C35.2881 4.74707 36.2666 4.36035 37.1514 4.36035C37.7021 4.36035 38.1562 4.49219 38.5137 4.75586C38.877 5.01367 39.1143 5.33301 39.2256 5.71387C39.3369 6.08887 39.3926 6.63965 39.3926 7.36621V11.5146H40.8252V13H37.7227V7.43652C37.7227 6.79199 37.626 6.37305 37.4326 6.17969C37.2393 5.98047 37.002 5.88086 36.7207 5.88086C35.9824 5.88086 35.1475 6.24121 34.2158 6.96191V11.5146H35.6836V13H31.0518V11.5146H32.5459V5.97754H31.0518V4.49219H34.2158ZM42.8555 11.5146V2.25977H41.3262V0.774414H44.5254V8.41211L47.707 5.87207H46.292V4.49219H50.9941V5.87207H49.6934L46.5029 8.52637L49.5 11.5146H50.9941V13H48.8057L44.5254 8.71973V11.5146H45.9932V13H41.3262V11.5146H42.8555ZM60.5303 11.5146V13H57.6123V11.9629C56.8037 12.748 55.9014 13.1406 54.9053 13.1406C54.1318 13.1406 53.458 12.8887 52.8838 12.3848C52.3154 11.8809 52.0312 11.2363 52.0312 10.4512C52.0312 9.66016 52.333 9.00391 52.9365 8.48242C53.5459 7.96094 54.2783 7.7002 55.1338 7.7002C55.9307 7.7002 56.7012 7.94043 57.4453 8.4209V7.57715C57.4453 7.14355 57.4043 6.80957 57.3223 6.5752C57.2402 6.34082 57.0469 6.12988 56.7422 5.94238C56.4434 5.75488 56.0508 5.66113 55.5645 5.66113C54.7266 5.66113 54.1201 5.99512 53.7451 6.66309L52.1455 6.24121C52.8545 4.91699 54.0791 4.25488 55.8193 4.25488C56.458 4.25488 57.0088 4.34277 57.4717 4.51855C57.9404 4.68848 58.2891 4.91113 58.5176 5.18652C58.7461 5.45605 58.8984 5.74902 58.9746 6.06543C59.0566 6.38184 59.0977 6.88574 59.0977 7.57715V11.5146H60.5303ZM57.4453 9.83594C56.7246 9.27344 55.9951 8.99219 55.2568 8.99219C54.7939 8.99219 54.4072 9.12695 54.0967 9.39648C53.7861 9.66602 53.6309 10.0146 53.6309 10.4424C53.6309 10.8408 53.7656 11.1748 54.0352 11.4443C54.3105 11.7139 54.6826 11.8486 55.1514 11.8486C55.96 11.8486 56.7246 11.5088 57.4453 10.8291V9.83594ZM64.415 4.49219V5.52051C65.4873 4.74707 66.4658 4.36035 67.3506 4.36035C67.9014 4.36035 68.3555 4.49219 68.7129 4.75586C69.0762 5.01367 69.3135 5.33301 69.4248 5.71387C69.5361 6.08887 69.5918 6.63965 69.5918 7.36621V11.5146H71.0244V13H67.9219V7.43652C67.9219 6.79199 67.8252 6.37305 67.6318 6.17969C67.4385 5.98047 67.2012 5.88086 66.9199 5.88086C66.1816 5.88086 65.3467 6.24121 64.415 6.96191V11.5146H65.8828V13H61.251V11.5146H62.7451V5.97754H61.251V4.49219H64.415ZM86.6338 4.49219V5.97754H85.1045V12.3145C85.1045 13.1699 85.0605 13.8027 84.9727 14.2129C84.8848 14.6289 84.6709 15.0508 84.3311 15.4785C83.9971 15.9121 83.4932 16.2754 82.8193 16.5684C82.1455 16.8613 81.3926 17.0078 80.5605 17.0078C79.3066 17.0078 78.1875 16.6299 77.2031 15.874L78.293 14.6611C79.0312 15.2354 79.834 15.5225 80.7012 15.5225C81.1816 15.5225 81.627 15.4287 82.0371 15.2412C82.4473 15.0596 82.752 14.8369 82.9512 14.5732C83.1562 14.3096 83.2881 14.0576 83.3467 13.8174C83.4053 13.583 83.4346 13.1846 83.4346 12.6221V11.8486C83.1709 12.1826 82.7578 12.499 82.1953 12.7979C81.6328 13.0967 81.0176 13.2461 80.3496 13.2461C79.1309 13.2461 78.1377 12.8242 77.3701 11.9805C76.6025 11.1367 76.2188 10.0996 76.2188 8.86914C76.2188 7.52148 76.6406 6.43457 77.4844 5.6084C78.334 4.77637 79.3154 4.36035 80.4287 4.36035C81.5537 4.36035 82.5557 4.80859 83.4346 5.70508V4.49219H86.6338ZM77.9941 8.83398C77.9941 9.69531 78.2432 10.3984 78.7412 10.9434C79.2451 11.4883 79.8867 11.7607 80.666 11.7607C81.4277 11.7607 82.084 11.4883 82.6348 10.9434C83.1855 10.3926 83.4609 9.68652 83.4609 8.8252C83.4609 7.95215 83.1855 7.25195 82.6348 6.72461C82.084 6.19141 81.4453 5.9248 80.7188 5.9248C79.9922 5.9248 79.3564 6.18848 78.8115 6.71582C78.2666 7.2373 77.9941 7.94336 77.9941 8.83398ZM95.8799 11.5146V13H92.9619V11.9629C92.1533 12.748 91.251 13.1406 90.2549 13.1406C89.4814 13.1406 88.8076 12.8887 88.2334 12.3848C87.665 11.8809 87.3809 11.2363 87.3809 10.4512C87.3809 9.66016 87.6826 9.00391 88.2861 8.48242C88.8955 7.96094 89.6279 7.7002 90.4834 7.7002C91.2803 7.7002 92.0508 7.94043 92.7949 8.4209V7.57715C92.7949 7.14355 92.7539 6.80957 92.6719 6.5752C92.5898 6.34082 92.3965 6.12988 92.0918 5.94238C91.793 5.75488 91.4004 5.66113 90.9141 5.66113C90.0762 5.66113 89.4697 5.99512 89.0947 6.66309L87.4951 6.24121C88.2041 4.91699 89.4287 4.25488 91.1689 4.25488C91.8076 4.25488 92.3584 4.34277 92.8213 4.51855C93.29 4.68848 93.6387 4.91113 93.8672 5.18652C94.0957 5.45605 94.248 5.74902 94.3242 6.06543C94.4062 6.38184 94.4473 6.88574 94.4473 7.57715V11.5146H95.8799ZM92.7949 9.83594C92.0742 9.27344 91.3447 8.99219 90.6064 8.99219C90.1436 8.99219 89.7568 9.12695 89.4463 9.39648C89.1357 9.66602 88.9805 10.0146 88.9805 10.4424C88.9805 10.8408 89.1152 11.1748 89.3848 11.4443C89.6602 11.7139 90.0322 11.8486 90.501 11.8486C91.3096 11.8486 92.0742 11.5088 92.7949 10.8291V9.83594ZM98.1123 11.5146V5.97754H96.6973V4.49219H99.7822V5.56445C100.79 4.76172 101.777 4.36035 102.744 4.36035C103.717 4.36035 104.388 4.80273 104.757 5.6875C105.864 4.80273 106.896 4.36035 107.851 4.36035C108.401 4.36035 108.853 4.4834 109.204 4.72949C109.562 4.96973 109.802 5.27734 109.925 5.65234C110.048 6.02148 110.109 6.56934 110.109 7.2959V11.5146H111.595V13H108.439V7.59473C108.439 7.10254 108.416 6.75684 108.369 6.55762C108.328 6.35254 108.217 6.18555 108.035 6.05664C107.859 5.92188 107.646 5.85449 107.394 5.85449C106.679 5.85449 105.867 6.2207 104.959 6.95312V11.5146H106.418V13H103.289V7.43652C103.289 6.87988 103.207 6.47852 103.043 6.23242C102.885 5.98047 102.612 5.85449 102.226 5.85449C101.593 5.85449 100.778 6.2207 99.7822 6.95312V11.5146H101.276V13H96.5918V11.5146H98.1123ZM121.342 9.16797H114.188C114.293 9.95312 114.604 10.5889 115.119 11.0752C115.635 11.5615 116.294 11.8047 117.097 11.8047C118.263 11.8047 119.186 11.3359 119.865 10.3984L121.342 11.0488C120.861 11.793 120.237 12.3467 119.47 12.71C118.702 13.0674 117.899 13.2461 117.062 13.2461C115.761 13.2461 114.647 12.8418 113.722 12.0332C112.802 11.2188 112.342 10.123 112.342 8.74609C112.342 7.43945 112.79 6.36426 113.687 5.52051C114.589 4.67676 115.623 4.25488 116.789 4.25488C117.932 4.25488 118.966 4.66797 119.892 5.49414C120.823 6.31445 121.307 7.53906 121.342 9.16797ZM119.619 7.95508C119.502 7.35742 119.191 6.81836 118.688 6.33789C118.184 5.85156 117.565 5.6084 116.833 5.6084C116.165 5.6084 115.594 5.82812 115.119 6.26758C114.645 6.70117 114.354 7.26367 114.249 7.95508H119.619ZM127.055 5.97754V4.49219H128.162V3.18262L129.832 1.65332V4.49219H131.405V5.97754H129.832V10.1084C129.832 10.7705 129.867 11.1807 129.938 11.3389C130.014 11.4912 130.198 11.5674 130.491 11.5674C130.802 11.5674 131.106 11.5088 131.405 11.3916V12.9121C130.978 13.0645 130.55 13.1406 130.122 13.1406C129.612 13.1406 129.199 13.0293 128.883 12.8066C128.566 12.5781 128.367 12.2939 128.285 11.9541C128.203 11.6143 128.162 11.0283 128.162 10.1963V5.97754H127.055ZM141.592 9.16797H134.438C134.543 9.95312 134.854 10.5889 135.369 11.0752C135.885 11.5615 136.544 11.8047 137.347 11.8047C138.513 11.8047 139.436 11.3359 140.115 10.3984L141.592 11.0488C141.111 11.793 140.487 12.3467 139.72 12.71C138.952 13.0674 138.149 13.2461 137.312 13.2461C136.011 13.2461 134.897 12.8418 133.972 12.0332C133.052 11.2188 132.592 10.123 132.592 8.74609C132.592 7.43945 133.04 6.36426 133.937 5.52051C134.839 4.67676 135.873 4.25488 137.039 4.25488C138.182 4.25488 139.216 4.66797 140.142 5.49414C141.073 6.31445 141.557 7.53906 141.592 9.16797ZM139.869 7.95508C139.752 7.35742 139.441 6.81836 138.938 6.33789C138.434 5.85156 137.815 5.6084 137.083 5.6084C136.415 5.6084 135.844 5.82812 135.369 6.26758C134.895 6.70117 134.604 7.26367 134.499 7.95508H139.869ZM142.453 13V11.5146H143.965V2.25977H142.453V0.774414H145.6V5.69629C146.438 4.73535 147.466 4.25488 148.685 4.25488C149.856 4.25488 150.838 4.65918 151.629 5.46777C152.426 6.27051 152.824 7.33105 152.824 8.64941C152.824 9.91504 152.435 10.9814 151.655 11.8486C150.882 12.71 149.889 13.1406 148.676 13.1406C147.996 13.1406 147.375 12.9941 146.812 12.7012C146.25 12.4082 145.846 12.083 145.6 11.7256V13H142.453ZM145.652 8.76367C145.652 9.64844 145.922 10.3516 146.461 10.873C147.006 11.3887 147.633 11.6465 148.342 11.6465C149.086 11.6465 149.728 11.3711 150.267 10.8203C150.806 10.2695 151.075 9.53125 151.075 8.60547C151.075 7.70898 150.806 7.01465 150.267 6.52246C149.733 6.02441 149.106 5.77539 148.386 5.77539C147.677 5.77539 147.044 6.0332 146.487 6.54883C145.931 7.05859 145.652 7.79688 145.652 8.76367ZM162.94 11.5146V13H160.022V11.9629C159.214 12.748 158.312 13.1406 157.315 13.1406C156.542 13.1406 155.868 12.8887 155.294 12.3848C154.726 11.8809 154.441 11.2363 154.441 10.4512C154.441 9.66016 154.743 9.00391 155.347 8.48242C155.956 7.96094 156.688 7.7002 157.544 7.7002C158.341 7.7002 159.111 7.94043 159.855 8.4209V7.57715C159.855 7.14355 159.814 6.80957 159.732 6.5752C159.65 6.34082 159.457 6.12988 159.152 5.94238C158.854 5.75488 158.461 5.66113 157.975 5.66113C157.137 5.66113 156.53 5.99512 156.155 6.66309L154.556 6.24121C155.265 4.91699 156.489 4.25488 158.229 4.25488C158.868 4.25488 159.419 4.34277 159.882 4.51855C160.351 4.68848 160.699 4.91113 160.928 5.18652C161.156 5.45605 161.309 5.74902 161.385 6.06543C161.467 6.38184 161.508 6.88574 161.508 7.57715V11.5146H162.94ZM159.855 9.83594C159.135 9.27344 158.405 8.99219 157.667 8.99219C157.204 8.99219 156.817 9.12695 156.507 9.39648C156.196 9.66602 156.041 10.0146 156.041 10.4424C156.041 10.8408 156.176 11.1748 156.445 11.4443C156.721 11.7139 157.093 11.8486 157.562 11.8486C158.37 11.8486 159.135 11.5088 159.855 10.8291V9.83594ZM165.146 11.5146V2.25977H163.617V0.774414H166.816V8.41211L169.998 5.87207H168.583V4.49219H173.285V5.87207H171.984L168.794 8.52637L171.791 11.5146H173.285V13H171.097L166.816 8.71973V11.5146H168.284V13H163.617V11.5146H165.146ZM179.965 11.5146V2.25977H178.436V0.774414H181.635V8.41211L184.816 5.87207H183.401V4.49219H188.104V5.87207H186.803L183.612 8.52637L186.609 11.5146H188.104V13H185.915L181.635 8.71973V11.5146H183.103V13H178.436V11.5146H179.965ZM197.64 11.5146V13H194.722V11.9629C193.913 12.748 193.011 13.1406 192.015 13.1406C191.241 13.1406 190.567 12.8887 189.993 12.3848C189.425 11.8809 189.141 11.2363 189.141 10.4512C189.141 9.66016 189.442 9.00391 190.046 8.48242C190.655 7.96094 191.388 7.7002 192.243 7.7002C193.04 7.7002 193.811 7.94043 194.555 8.4209V7.57715C194.555 7.14355 194.514 6.80957 194.432 6.5752C194.35 6.34082 194.156 6.12988 193.852 5.94238C193.553 5.75488 193.16 5.66113 192.674 5.66113C191.836 5.66113 191.229 5.99512 190.854 6.66309L189.255 6.24121C189.964 4.91699 191.188 4.25488 192.929 4.25488C193.567 4.25488 194.118 4.34277 194.581 4.51855C195.05 4.68848 195.398 4.91113 195.627 5.18652C195.855 5.45605 196.008 5.74902 196.084 6.06543C196.166 6.38184 196.207 6.88574 196.207 7.57715V11.5146H197.64ZM194.555 9.83594C193.834 9.27344 193.104 8.99219 192.366 8.99219C191.903 8.99219 191.517 9.12695 191.206 9.39648C190.896 9.66602 190.74 10.0146 190.74 10.4424C190.74 10.8408 190.875 11.1748 191.145 11.4443C191.42 11.7139 191.792 11.8486 192.261 11.8486C193.069 11.8486 193.834 11.5088 194.555 10.8291V9.83594ZM198.422 5.97754V4.49219H199.529V3.18262L201.199 1.65332V4.49219H202.772V5.97754H201.199V10.1084C201.199 10.7705 201.234 11.1807 201.305 11.3389C201.381 11.4912 201.565 11.5674 201.858 11.5674C202.169 11.5674 202.474 11.5088 202.772 11.3916V12.9121C202.345 13.0645 201.917 13.1406 201.489 13.1406C200.979 13.1406 200.566 13.0293 200.25 12.8066C199.934 12.5781 199.734 12.2939 199.652 11.9541C199.57 11.6143 199.529 11.0283 199.529 10.1963V5.97754H198.422ZM212.634 11.5146V13H209.716V11.9629C208.907 12.748 208.005 13.1406 207.009 13.1406C206.235 13.1406 205.562 12.8887 204.987 12.3848C204.419 11.8809 204.135 11.2363 204.135 10.4512C204.135 9.66016 204.437 9.00391 205.04 8.48242C205.649 7.96094 206.382 7.7002 207.237 7.7002C208.034 7.7002 208.805 7.94043 209.549 8.4209V7.57715C209.549 7.14355 209.508 6.80957 209.426 6.5752C209.344 6.34082 209.15 6.12988 208.846 5.94238C208.547 5.75488 208.154 5.66113 207.668 5.66113C206.83 5.66113 206.224 5.99512 205.849 6.66309L204.249 6.24121C204.958 4.91699 206.183 4.25488 207.923 4.25488C208.562 4.25488 209.112 4.34277 209.575 4.51855C210.044 4.68848 210.393 4.91113 210.621 5.18652C210.85 5.45605 211.002 5.74902 211.078 6.06543C211.16 6.38184 211.201 6.88574 211.201 7.57715V11.5146H212.634ZM209.549 9.83594C208.828 9.27344 208.099 8.99219 207.36 8.99219C206.897 8.99219 206.511 9.12695 206.2 9.39648C205.89 9.66602 205.734 10.0146 205.734 10.4424C205.734 10.8408 205.869 11.1748 206.139 11.4443C206.414 11.7139 206.786 11.8486 207.255 11.8486C208.063 11.8486 208.828 11.5088 209.549 10.8291V9.83594ZM218.109 13V10.082H219.604V10.3633C219.656 10.7617 219.87 11.0898 220.245 11.3477C220.626 11.6055 221.074 11.7344 221.59 11.7344C222.129 11.7344 222.56 11.6406 222.882 11.4531C223.204 11.2656 223.365 11.0049 223.365 10.6709C223.365 10.3486 223.23 10.1113 222.961 9.95898C222.697 9.80664 222.17 9.66602 221.379 9.53711C220.207 9.33789 219.369 9.01855 218.865 8.5791C218.367 8.13379 218.118 7.55957 218.118 6.85645C218.118 6.14746 218.391 5.55566 218.936 5.08105C219.48 4.60059 220.198 4.36035 221.089 4.36035C221.892 4.36035 222.583 4.52441 223.163 4.85254V4.49219H224.648V7.31348H223.163V6.79492C222.712 6.09766 222.056 5.74902 221.194 5.74902C220.755 5.74902 220.392 5.8457 220.104 6.03906C219.823 6.22656 219.683 6.47852 219.683 6.79492C219.683 7.11719 219.812 7.33984 220.069 7.46289C220.333 7.58008 220.896 7.70605 221.757 7.84082C222.583 7.96973 223.207 8.12207 223.629 8.29785C224.051 8.46777 224.399 8.75488 224.675 9.15918C224.956 9.55762 225.097 10.0234 225.097 10.5566C225.097 11.3477 224.792 11.9775 224.183 12.4463C223.579 12.9092 222.794 13.1406 221.827 13.1406C220.919 13.1406 220.178 12.9355 219.604 12.5254V13H218.109ZM235.266 9.16797H228.111C228.217 9.95312 228.527 10.5889 229.043 11.0752C229.559 11.5615 230.218 11.8047 231.021 11.8047C232.187 11.8047 233.109 11.3359 233.789 10.3984L235.266 11.0488C234.785 11.793 234.161 12.3467 233.394 12.71C232.626 13.0674 231.823 13.2461 230.985 13.2461C229.685 13.2461 228.571 12.8418 227.646 12.0332C226.726 11.2188 226.266 10.123 226.266 8.74609C226.266 7.43945 226.714 6.36426 227.61 5.52051C228.513 4.67676 229.547 4.25488 230.713 4.25488C231.855 4.25488 232.89 4.66797 233.815 5.49414C234.747 6.31445 235.23 7.53906 235.266 9.16797ZM233.543 7.95508C233.426 7.35742 233.115 6.81836 232.611 6.33789C232.107 5.85156 231.489 5.6084 230.757 5.6084C230.089 5.6084 229.518 5.82812 229.043 6.26758C228.568 6.70117 228.278 7.26367 228.173 7.95508H233.543ZM238.043 11.5146V5.97754H236.329V4.49219H239.379V6.4082C239.566 5.91016 239.827 5.49707 240.161 5.16895C240.495 4.84082 240.847 4.62402 241.216 4.51855C241.591 4.41309 242.101 4.36035 242.745 4.36035H243.185V6.04785H242.851C242.001 6.04785 241.365 6.13281 240.943 6.30273C240.527 6.47266 240.217 6.7832 240.012 7.23438C239.812 7.67969 239.713 8.48242 239.713 9.64258V11.5146H241.567V13H236.329V11.5146H238.043ZM253.679 11.5146V13H250.541V12.0244C249.562 12.7686 248.625 13.1406 247.729 13.1406C247.16 13.1406 246.688 13.0176 246.313 12.7715C245.944 12.5195 245.698 12.1973 245.575 11.8047C245.452 11.4062 245.391 10.7676 245.391 9.88867V5.97754H244.187V4.49219H247.061V9.67773C247.061 10.3047 247.078 10.7266 247.113 10.9434C247.148 11.1602 247.251 11.3389 247.421 11.4795C247.591 11.6201 247.805 11.6904 248.062 11.6904C248.836 11.6904 249.662 11.3213 250.541 10.583V5.97754H249.038V4.49219H252.211V11.5146H253.679ZM256.931 9.68652H256.034L255.595 4.49219V0.774414H257.37V4.49219L256.931 9.68652ZM255.41 13V10.8379H257.572V13H255.41Z" fill="black"/>
</svg>
