<svg width="242" height="59" viewBox="0 0 242 59" fill="none" xmlns="http://www.w3.org/2000/svg">
<rect width="242" height="59" fill="black"/>
<path d="M47.9136 39V35.6724H50.6748V30.3481L45.3364 22.6309H42.9292V19.3032H52.7847V22.6309H50.8447L53.7334 27.4453L56.6646 22.6309H54.6396V19.3032H63.3198V22.6309H60.8984L55.8008 30.3481V35.6724H58.5479V39H47.9136ZM78.3438 35.8423V39H71.7593V37.8389C70.4471 38.7451 69.116 39.1982 67.7661 39.1982C66.4445 39.1982 65.4061 38.8301 64.6509 38.0938C63.9051 37.348 63.5322 36.3001 63.5322 34.9502V28.4648H61.479V25.293H67.8936V33.8315C67.8936 34.5112 67.9974 34.9785 68.2051 35.2334C68.4128 35.4788 68.7904 35.6016 69.3379 35.6016C70.0742 35.6016 70.8813 35.2759 71.7593 34.6245V28.4648H69.6494V25.293H76.1348V35.8423H78.3438ZM80.043 39V35.8423H82.252V22.4609H80.043V19.3032H86.6133V31.75L91.3286 27.9126H88.4258V25.293H96.7095V28.0684H95.3359L91.3286 31.4951L94.9819 35.8423H96.8794V39H92.6738L86.6133 31.75V35.998H88.27V39H80.043ZM105.843 39V35.6724H108.392V22.6309H105.843V19.3032H115.712L120.045 30.8579L124.393 19.3032H134.46V22.6309H131.912V35.6724H134.46V39H124.548V35.6724H126.927V22.6309H126.46L120.357 39H118.233L112.059 22.6309H111.592V35.6724H114.169V39H105.843ZM151.764 35.8423V39H145.18V37.9238C144 38.7734 142.754 39.1982 141.441 39.1982C140.082 39.1982 138.907 38.8112 137.916 38.0371C136.934 37.263 136.443 36.2246 136.443 34.9219C136.443 33.6097 136.962 32.5099 138 31.6226C139.039 30.7352 140.379 30.2915 142.022 30.2915C142.938 30.2915 143.99 30.5228 145.18 30.9854V30.1499C145.18 29.4513 144.944 28.8802 144.472 28.4365C144 27.9834 143.367 27.7568 142.574 27.7568C141.592 27.7568 140.752 28.1156 140.054 28.833L136.528 28.1958C137.547 26.034 139.761 24.9531 143.169 24.9531C144.491 24.9531 145.586 25.1042 146.454 25.4062C147.323 25.6989 147.969 26.0812 148.394 26.5532C148.819 27.0252 149.116 27.5444 149.286 28.1108C149.465 28.6678 149.555 29.5788 149.555 30.8438V35.8423H151.764ZM145.18 33.9307C144.122 33.2699 143.278 32.9395 142.645 32.9395C142.145 32.9395 141.687 33.0858 141.271 33.3784C140.866 33.6711 140.663 34.0959 140.663 34.6528C140.663 35.1532 140.828 35.5827 141.158 35.9414C141.489 36.3001 141.913 36.4795 142.433 36.4795C143.244 36.4795 144.16 36.0028 145.18 35.0493V33.9307ZM155.318 21.3706C155.318 20.7098 155.55 20.1434 156.012 19.6714C156.484 19.1994 157.051 18.9634 157.711 18.9634C158.382 18.9634 158.948 19.1994 159.411 19.6714C159.873 20.1434 160.104 20.7098 160.104 21.3706C160.104 22.0314 159.868 22.5978 159.396 23.0698C158.934 23.5324 158.372 23.7637 157.711 23.7637C157.06 23.7637 156.498 23.5277 156.026 23.0557C155.554 22.5837 155.318 22.022 155.318 21.3706ZM153.393 28.4648V25.293H159.85V35.8423H161.889V39H153.393V35.8423H155.474V28.4648H153.393ZM163.489 28.4648V25.293H169.96V26.5674C171.282 25.5762 172.622 25.0806 173.981 25.0806C176.747 25.0806 178.13 26.8459 178.13 30.3765V35.8423H180.198V39H173.755V30.7021C173.755 29.9564 173.651 29.4466 173.443 29.1729C173.245 28.8991 172.915 28.7622 172.452 28.7622C171.64 28.7622 170.81 29.0596 169.96 29.6543V35.8423H172.07V39H163.489V35.8423H165.584V28.4648H163.489Z" fill="white"/>
</svg>
